<svg viewBox="0 0 330 200" xmlns="http://www.w3.org/2000/svg"><g><g><g><g><g><line x1="41.171875" y1="177" x2="36.171875" y2="177" style="visibility: inherit;" fill="rgb(0, 0, 0)" stroke="rgb(204, 204, 204)" stroke-width="1px"></line><line x1="41.171875" y1="157.33333333333331" x2="36.171875" y2="157.33333333333331" style="visibility: inherit;" fill="rgb(0, 0, 0)" stroke="rgb(204, 204, 204)" stroke-width="1px"></line><line x1="41.171875" y1="137.66666666666666" x2="36.171875" y2="137.66666666666666" style="visibility: inherit;" fill="rgb(0, 0, 0)" stroke="rgb(204, 204, 204)" stroke-width="1px"></line><line x1="41.171875" y1="118.00000000000001" x2="36.171875" y2="118.00000000000001" style="visibility: inherit;" fill="rgb(0, 0, 0)" stroke="rgb(204, 204, 204)" stroke-width="1px"></line><line x1="41.171875" y1="98.33333333333334" x2="36.171875" y2="98.33333333333334" style="visibility: inherit;" fill="rgb(0, 0, 0)" stroke="rgb(204, 204, 204)" stroke-width="1px"></line><line x1="41.171875" y1="78.66666666666666" x2="36.171875" y2="78.66666666666666" style="visibility: inherit;" fill="rgb(0, 0, 0)" stroke="rgb(204, 204, 204)" stroke-width="1px"></line><line x1="41.171875" y1="59.00000000000001" x2="36.171875" y2="59.00000000000001" style="visibility: inherit;" fill="rgb(0, 0, 0)" stroke="rgb(204, 204, 204)" stroke-width="1px"></line><line x1="41.171875" y1="39.33333333333333" x2="36.171875" y2="39.33333333333333" style="visibility: inherit;" fill="rgb(0, 0, 0)" stroke="rgb(204, 204, 204)" stroke-width="1px"></line><line x1="41.171875" y1="19.666666666666675" x2="36.171875" y2="19.666666666666675" style="visibility: inherit;" fill="rgb(0, 0, 0)" stroke="rgb(204, 204, 204)" stroke-width="1px"></line><line x1="41.171875" y1="0" x2="36.171875" y2="0" style="visibility: inherit;" fill="rgb(0, 0, 0)" stroke="rgb(204, 204, 204)" stroke-width="1px"></line></g><g transform="translate(31.171875, 0)"><text x="0" y="177" dx="0em" dy="0.3em" style="text-anchor: end; visibility: hidden; font-family: Roboto, sans-serif; font-size: 12px; font-weight: 200;" fill="rgb(33, 33, 33)" stroke="none" stroke-width="1px">0.5</text><text x="0" y="157.33333333333331" dx="0em" dy="0.3em" style="text-anchor: end; visibility: inherit; font-family: Roboto, sans-serif; font-size: 12px; font-weight: 200;" fill="rgb(33, 33, 33)" stroke="none" stroke-width="1px">1</text><text x="0" y="137.66666666666666" dx="0em" dy="0.3em" style="text-anchor: end; visibility: hidden; font-family: Roboto, sans-serif; font-size: 12px; font-weight: 200;" fill="rgb(33, 33, 33)" stroke="none" stroke-width="1px">1.5</text><text x="0" y="118.00000000000001" dx="0em" dy="0.3em" style="text-anchor: end; visibility: inherit; font-family: Roboto, sans-serif; font-size: 12px; font-weight: 200;" fill="rgb(33, 33, 33)" stroke="none" stroke-width="1px">2</text><text x="0" y="98.33333333333334" dx="0em" dy="0.3em" style="text-anchor: end; visibility: hidden; font-family: Roboto, sans-serif; font-size: 12px; font-weight: 200;" fill="rgb(33, 33, 33)" stroke="none" stroke-width="1px">2.5</text><text x="0" y="78.66666666666666" dx="0em" dy="0.3em" style="text-anchor: end; visibility: inherit; font-family: Roboto, sans-serif; font-size: 12px; font-weight: 200;" fill="rgb(33, 33, 33)" stroke="none" stroke-width="1px">3</text><text x="0" y="59.00000000000001" dx="0em" dy="0.3em" style="text-anchor: end; visibility: hidden; font-family: Roboto, sans-serif; font-size: 12px; font-weight: 200;" fill="rgb(33, 33, 33)" stroke="none" stroke-width="1px">3.5</text><text x="0" y="39.33333333333333" dx="0em" dy="0.3em" style="text-anchor: end; visibility: inherit; font-family: Roboto, sans-serif; font-size: 12px; font-weight: 200;" fill="rgb(33, 33, 33)" stroke="none" stroke-width="1px">4</text><text x="0" y="19.666666666666675" dx="0em" dy="0.3em" style="text-anchor: end; visibility: hidden; font-family: Roboto, sans-serif; font-size: 12px; font-weight: 200;" fill="rgb(33, 33, 33)" stroke="none" stroke-width="1px">4.5</text><text x="0" y="0" dx="0em" dy="0.3em" style="text-anchor: end; visibility: hidden; font-family: Roboto, sans-serif; font-size: 12px; font-weight: 200;" fill="rgb(33, 33, 33)" stroke="none" stroke-width="1px">5</text></g><line x1="41.171875" y1="0" x2="41.171875" y2="177" fill="rgb(0, 0, 0)" stroke="rgb(204, 204, 204)" stroke-width="1px"></line></g></g><g transform="translate(41, 0)" clip-path="url(#clip_0)"><clipPath id="clip_0"><rect width="288" height="177"></rect></clipPath><g><g><g><line x1="0" y1="0" x2="0" y2="177" fill="rgb(0, 0, 0)" stroke="rgb(66, 66, 66)" stroke-width="1px" opacity="0.25"></line><line x1="24.069010416666664" y1="0" x2="24.069010416666664" y2="177" fill="rgb(0, 0, 0)" stroke="rgb(66, 66, 66)" stroke-width="1px" opacity="0.25"></line><line x1="48.13802083333333" y1="0" x2="48.13802083333333" y2="177" fill="rgb(0, 0, 0)" stroke="rgb(66, 66, 66)" stroke-width="1px" opacity="0.25"></line><line x1="72.20703125" y1="0" x2="72.20703125" y2="177" fill="rgb(0, 0, 0)" stroke="rgb(66, 66, 66)" stroke-width="1px" opacity="0.25"></line><line x1="96.27604166666666" y1="0" x2="96.27604166666666" y2="177" fill="rgb(0, 0, 0)" stroke="rgb(66, 66, 66)" stroke-width="1px" opacity="0.25"></line><line x1="120.34505208333334" y1="0" x2="120.34505208333334" y2="177" fill="rgb(0, 0, 0)" stroke="rgb(66, 66, 66)" stroke-width="1px" opacity="0.25"></line><line x1="144.4140625" y1="0" x2="144.4140625" y2="177" fill="rgb(0, 0, 0)" stroke="rgb(66, 66, 66)" stroke-width="1px" opacity="0.25"></line><line x1="168.48307291666669" y1="0" x2="168.48307291666669" y2="177" fill="rgb(0, 0, 0)" stroke="rgb(66, 66, 66)" stroke-width="1px" opacity="0.25"></line><line x1="192.55208333333331" y1="0" x2="192.55208333333331" y2="177" fill="rgb(0, 0, 0)" stroke="rgb(66, 66, 66)" stroke-width="1px" opacity="0.25"></line><line x1="216.62109375" y1="0" x2="216.62109375" y2="177" fill="rgb(0, 0, 0)" stroke="rgb(66, 66, 66)" stroke-width="1px" opacity="0.25"></line><line x1="240.69010416666669" y1="0" x2="240.69010416666669" y2="177" fill="rgb(0, 0, 0)" stroke="rgb(66, 66, 66)" stroke-width="1px" opacity="0.25"></line><line x1="264.7591145833333" y1="0" x2="264.7591145833333" y2="177" fill="rgb(0, 0, 0)" stroke="rgb(66, 66, 66)" stroke-width="1px" opacity="0.25"></line><line x1="288.828125" y1="0" x2="288.828125" y2="177" fill="rgb(0, 0, 0)" stroke="rgb(66, 66, 66)" stroke-width="1px" opacity="0.25"></line></g><g><line x1="0" y1="177" x2="288.828125" y2="177" fill="rgb(0, 0, 0)" stroke="rgb(66, 66, 66)" stroke-width="1px" opacity="0.25"></line><line x1="0" y1="157.33333333333331" x2="288.828125" y2="157.33333333333331" fill="rgb(0, 0, 0)" stroke="rgb(66, 66, 66)" stroke-width="1px" opacity="0.25"></line><line x1="0" y1="137.66666666666666" x2="288.828125" y2="137.66666666666666" fill="rgb(0, 0, 0)" stroke="rgb(66, 66, 66)" stroke-width="1px" opacity="0.25"></line><line x1="0" y1="118.00000000000001" x2="288.828125" y2="118.00000000000001" fill="rgb(0, 0, 0)" stroke="rgb(66, 66, 66)" stroke-width="1px" opacity="0.25"></line><line x1="0" y1="98.33333333333334" x2="288.828125" y2="98.33333333333334" fill="rgb(0, 0, 0)" stroke="rgb(66, 66, 66)" stroke-width="1px" opacity="0.25"></line><line x1="0" y1="78.66666666666666" x2="288.828125" y2="78.66666666666666" fill="rgb(0, 0, 0)" stroke="rgb(66, 66, 66)" stroke-width="1px" opacity="0.25"></line><line x1="0" y1="59.00000000000001" x2="288.828125" y2="59.00000000000001" fill="rgb(0, 0, 0)" stroke="rgb(66, 66, 66)" stroke-width="1px" opacity="0.25"></line><line x1="0" y1="39.33333333333333" x2="288.828125" y2="39.33333333333333" fill="rgb(0, 0, 0)" stroke="rgb(66, 66, 66)" stroke-width="1px" opacity="0.25"></line><line x1="0" y1="19.666666666666675" x2="288.828125" y2="19.666666666666675" fill="rgb(0, 0, 0)" stroke="rgb(66, 66, 66)" stroke-width="1px" opacity="0.25"></line><line x1="0" y1="0" x2="288.828125" y2="0" fill="rgb(0, 0, 0)" stroke="rgb(66, 66, 66)" stroke-width="1px" opacity="0.25"></line></g></g></g><g><g><line x1="0" y1="196.66666666666669" x2="288.828125" y2="196.66666666666669" fill="rgb(0, 0, 0)" stroke="rgb(153, 153, 153)" stroke-width="1.5px"></line></g></g><g><g><line x1="24.069010416666664" y1="0" x2="24.069010416666664" y2="177" fill="rgb(0, 0, 0)" stroke="rgb(153, 153, 153)" stroke-width="1.5px"></line></g></g><g><g><g><g><g><path stroke="rgb(51, 187, 238)" stroke-width="2px" d="M26.475911458333332,13.376471519470222L26.475911458333332,14.603826776218847L28.8828125,19.18592604497929L31.289713541666668,23.939785956154918L33.696614583333336,33.019152494944656L36.103515625,42.40661576219982L38.510416666666664,51.44520081456124L40.917317708333336,60.66729740343131L43.32421875,68.36228026296929L45.731119791666664,77.26994575249489L48.13802083333333,84.64698750932938L50.544921875,91.49237569178486L52.951822916666664,97.29790988595168L55.358723958333336,103.34655226879433L57.765625,108.31224718237954L60.17252604166667,113.40910655159009L62.579427083333336,116.2284564465967L64.986328125,118.63125665451717L67.39322916666667,121.72988809193038L69.80013020833333,123.5791055012354L72.20703125,126.9321008960478L74.61393229166667,127.46264096534394L77.02083333333333,128.05582617626607L79.427734375,128.91395196083127L81.83463541666667,130.5519939329718L84.24153645833334,130.70792465257458L86.6484375,130.2533146296036L89.05533854166667,131.07427411359893L91.46223958333333,132.20163444811035L93.869140625,133.15640762272588L96.27604166666666,133.972970948316L98.68294270833333,133.46845035004563L101.08984375,135.45458608134192L103.49674479166667,135.59383822228315L105.90364583333333,136.6376211407677L108.310546875,137.76633797441949L110.71744791666667,139.7911797953068L113.12434895833333,141.83921845425203L115.53125,140.95106620201045L117.93815104166667,141.82311526701363L120.34505208333334,142.3590833305359L122.751953125,143.37463746612391L125.15885416666667,142.81696882963695L127.56575520833333,144.562997090771L129.97265625,146.18187782677268L132.37955729166666,146.8888877846649L134.78645833333334,147.9266025302688L137.193359375,148.57518375395338L139.60026041666666,149.40865786749765L142.00716145833331,149.4114213063413L144.4140625,151.24438186332696L146.82096354166666,152.12324951710724L149.22786458333334,151.70981404336655L151.634765625,151.25432487545822L154.04166666666666,152.64258274802177L156.44856770833331,151.51786496522868L158.85546875,152.4921095602569L161.26236979166666,153.40630479473407L163.66927083333334,154.2423116411034L166.076171875,153.9203950384556L168.48307291666669,153.91866628815126L170.88997395833334,153.73502709184365L173.296875,153.6182543379482L175.70377604166666,153.90883610662053L178.11067708333334,153.45518600666136L180.517578125,154.58809272119106L182.92447916666666,156.08411398158418L185.33138020833334,157.64245229118825L187.73828125,156.51874074250821L190.14518229166666,156.1873617396199L192.55208333333331,154.9132306597521L194.958984375,155.60068916742793L197.36588541666666,155.62059757721525L199.77278645833334,157.19632988647726L202.1796875,157.93044526549832L204.58658854166669,157.33449002701755L206.99348958333334,159.14171379146254L209.400390625,158.51518721946795L211.80729166666666,159.5318510272927L214.21419270833334,159.14250736342103L216.62109375,159.7624219830565L219.02799479166666,158.92332070443788L221.43489583333334,159.49433352049314L223.841796875,158.06105776115677L226.24869791666666,157.33778420414635L228.65559895833331,157.0011247228721L231.0625,157.13188243782292L233.46940104166666,157.13511813913718L235.87630208333334,157.12813100412814L238.283203125,158.25820240543925L240.69010416666669,158.1583256398222L243.09700520833334,158.86138076325977L245.50390625,159.68453067230217L247.91080729166666,159.75273644450405L250.31770833333334,158.12370905234653L252.724609375,158.1395251680595L255.13151041666666,158.18359616782837L257.53841145833337,158.92495633319285L259.9453125,158.5851148628947L262.3522135416667,159.4538088760002L264.7591145833333,159.88156533816328" style="fill: none;" fill="none"></path></g><g><path stroke="rgb(204, 51, 17)" stroke-width="2px" d="M26.475911458333332,14.261885643005364L28.8828125,17.489544122115408L31.289713541666668,24.124310575921502L33.696614583333336,32.533522760209124L36.103515625,40.81872689988406L38.510416666666664,50.87226738896185L40.917317708333336,56.901502040529984L43.32421875,63.01809050001117L45.731119791666664,71.74879615511418L48.13802083333333,77.7538928575864L50.544921875,81.88607019790352L52.951822916666664,86.33007609028934L55.358723958333336,92.35464250823527L57.765625,96.31178780088769L60.17252604166667,98.85744058360986L62.579427083333336,102.40007487270066L64.986328125,106.555582224304L67.39322916666667,109.01242094543538L69.80013020833333,110.42930936903024L72.20703125,113.5647886784111L74.61393229166667,116.10447194824668L77.02083333333333,116.64509902912896L79.427734375,118.30138780694189L81.83463541666667,120.11854619717913L84.24153645833334,120.88596737444263L86.6484375,122.41913366767042L89.05533854166667,121.8034094773795L91.46223958333333,123.53332644653037L93.869140625,124.16732692460049L96.27604166666666,126.35435386592387L98.68294270833333,127.3420257232806L101.08984375,128.2582309775547L103.49674479166667,128.30116702557746L105.90364583333333,130.65855348176746L108.310546875,131.31994805597816L110.71744791666667,130.31266600419346L113.12434895833333,131.7507787518781L115.53125,134.1324143482446L117.93815104166667,135.02158922205467L120.34505208333334,135.511858748578L122.751953125,136.8930684231748L125.15885416666667,136.7907326794244L127.56575520833333,137.09397120002322L129.97265625,136.51824370903626L132.37955729166666,137.64820722296838L134.78645833333334,138.04241049995147L137.193359375,138.51786619099542L139.60026041666666,139.03977252547287L142.00716145833331,140.78219643079743L144.4140625,142.85096362444557L146.82096354166666,144.0269531414143L149.22786458333334,143.19978389628344L151.634765625,143.8002327489185L154.04166666666666,144.18328654578056L156.44856770833331,145.26029661119534L158.85546875,144.16025744451096L161.26236979166666,145.0711472597632L163.66927083333334,146.59125805422158L166.076171875,147.22367787904085L168.48307291666669,146.70092457112406L170.88997395833334,147.5122093537461L173.296875,149.27533635384813L175.70377604166666,148.55934317438292L178.11067708333334,149.78263679146835L180.517578125,150.31708136320117L182.92447916666666,149.6846357973758L185.33138020833334,151.2043928942251L187.73828125,150.04312228174254L190.14518229166666,149.593673984932L192.55208333333331,150.96207113043238L194.958984375,150.91285441077582L197.36588541666666,151.13995259181374L199.77278645833334,151.52994642510907L202.1796875,152.14666134464414L204.58658854166669,152.23759180707106L206.99348958333334,153.89513000692696L209.400390625,153.75711477213045L211.80729166666666,153.46845016081144L214.21419270833334,154.48154616226978L216.62109375,155.63198159840397L219.02799479166666,153.8014292564139L221.43489583333334,153.817058780636L223.841796875,154.91813743081283L226.24869791666666,156.47139784967968L228.65559895833331,157.8548137399091L231.0625,155.87035719931797L233.46940104166666,156.12626664912707L235.87630208333334,157.2349316873169L238.283203125,157.231322639541L240.69010416666669,157.81202618100582L243.09700520833334,158.29159906971756L245.50390625,159.85526966665728L247.91080729166666,160.43388896902948L250.31770833333334,159.3962804491062" style="fill: none;" fill="none"></path></g><g><path stroke="rgb(255, 112, 67)" stroke-width="2px" d="M26.475911458333332,15.616039594014483L28.8828125,18.4947352800968L31.289713541666668,23.519750199162978L33.696614583333336,32.59408858036038L36.103515625,42.25191075073419L38.510416666666664,51.01377870055011L40.917317708333336,59.68725617244193L43.32421875,69.16041247690372L45.731119791666664,76.74299684836683L48.13802083333333,85.07570703495887L50.544921875,90.17066030165503L52.951822916666664,94.92258360499612L55.358723958333336,98.23199702074625L57.765625,101.11749025845928L60.17252604166667,104.63244695969486L62.579427083333336,106.39128569911247L64.986328125,108.58274517135142L67.39322916666667,110.46375538988292L69.80013020833333,113.59912157512214L72.20703125,115.28613116599433L74.61393229166667,117.21247946839664L77.02083333333333,118.50020812440296L79.427734375,119.77616609753345L81.83463541666667,121.23067960219214L84.24153645833334,123.1268517441832L86.6484375,122.97068625934492L89.05533854166667,123.78636405248358L91.46223958333333,124.31402411796844L93.869140625,124.80904184954015L96.27604166666666,126.30481297581653L98.68294270833333,126.37551676435768L101.08984375,127.41787429656378L103.49674479166667,128.97218612646563L105.90364583333333,127.89205527500745L108.310546875,129.4431286082692L110.71744791666667,130.6600009058357L113.12434895833333,130.30812317512633L115.53125,132.66816908359525L117.93815104166667,132.81825747017893L120.34505208333334,133.92277722765863L122.751953125,133.88977525965305L125.15885416666667,135.18407826676705L127.56575520833333,134.36511588152504L129.97265625,134.64347513419017L132.37955729166666,135.45453540788196L134.78645833333334,135.33695010908144L137.193359375,137.16807379524735L139.60026041666666,139.48978541616057L142.00716145833331,139.3189246447686L144.4140625,139.74873281308862L146.82096354166666,139.73064752652934L149.22786458333334,140.0814125418637L151.634765625,141.05662775654832L154.04166666666666,143.18493774536213L156.44856770833331,143.50209018629795L158.85546875,143.77782686625451L161.26236979166666,144.01282697233538L163.66927083333334,145.1100154035133L166.076171875,144.42719031992183L168.48307291666669,145.89233262133226L170.88997395833334,146.15029004616L173.296875,147.1718600063747L175.70377604166666,148.083184924699L178.11067708333334,148.2086562933564L180.517578125,148.8557241972706L182.92447916666666,148.65366281824046L185.33138020833334,148.44506854379586L187.73828125,147.41969052579336L190.14518229166666,147.46358791917672L192.55208333333331,149.06955900367487L194.958984375,149.69130028461888L197.36588541666666,148.549440750898L199.77278645833334,148.88354178254974L202.1796875,148.66410813617932L204.58658854166669,149.52638209235545L206.99348958333334,149.75386649936604L209.400390625,151.1291206555149L211.80729166666666,149.53650197489225L214.21419270833334,149.7438603500524L216.62109375,149.52999856158937L219.02799479166666,149.9245343497565L221.43489583333334,150.93946761202164L223.841796875,150.0913618492634L226.24869791666666,152.10746604139726L228.65559895833331,152.9018391420749L231.0625,152.31898248657254L233.46940104166666,152.583177409936L235.87630208333334,152.97901873560522L238.283203125,152.35494739273702L240.69010416666669,153.55388160629252L243.09700520833334,152.84705634475043L245.50390625,151.22430377385206L247.91080729166666,151.16101367231568L250.31770833333334,152.5403027042088L252.724609375,152.18746119744026L255.13151041666666,151.06599236681726L257.53841145833337,150.39395043092102L259.9453125,150.37942232595802L262.3522135416667,151.21545405469854L264.7591145833333,153.08061517456997" style="fill: none;" fill="none"></path></g></g></g></g><g opacity="0.2"><g><g><g><path stroke="rgb(51, 187, 238)" stroke-width="2px" d="M26.475911458333332,13.376471519470222L26.475911458333332,15.49365933736165L28.8828125,24.916413942972813L31.289713541666668,31.69667402903239L33.696614583333336,50.34244553248088L36.103515625,62.19810088475545L38.510416666666664,71.81373802820842L40.917317708333336,82.42032702763875L43.32421875,87.10053253173828L45.731119791666664,99.45418643951415L48.13802083333333,103.3152413368225L50.544921875,109.01435391108194L52.951822916666664,112.2806313832601L55.358723958333336,119.04915984471639L57.765625,121.25850796699523L60.17252604166667,126.73829261461894L62.579427083333336,123.61798055966696L64.986328125,124.93915279706319L67.39322916666667,129.87398894627887L69.80013020833333,128.44349034627277L72.20703125,135.75758624076843L74.61393229166667,128.8597051302592L77.02083333333333,129.61835487683615L79.427734375,131.17489576339722L81.83463541666667,134.8685475985209L84.24153645833334,131.11888217926025L86.6484375,129.05507747332257L89.05533854166667,133.2382550239563L91.46223958333333,135.17340103785196L93.869140625,135.67331266403198L96.27604166666666,136.12558976809183L98.68294270833333,132.13841287295023L101.08984375,140.69058434168497L103.49674479166667,135.96094846725464L105.90364583333333,139.38936336835226L108.310546875,140.74200749397278L110.71744791666667,145.12934907277426L113.12434895833333,147.23855638504028L115.53125,138.60958544413248L117.93815104166667,144.1221454938253L120.34505208333334,143.77208638191223L122.751953125,146.05200242996216L125.15885416666667,141.34675351778665L127.56575520833333,149.16615796089172L129.97265625,150.44983307520548L132.37955729166666,148.75282216072083L134.78645833333334,150.6623949209849L137.193359375,150.28507924079895L139.60026041666666,151.60599827766418L142.00716145833331,149.41870673497516L144.4140625,156.0767319202423L146.82096354166666,154.44026406606037L149.22786458333334,150.61984785397846L151.634765625,150.0534898440043L154.04166666666666,156.3025352160136L156.44856770833331,148.55269996325177L158.85546875,155.06057254473367L161.26236979166666,155.81645584106445L163.66927083333334,156.4463296731313L166.076171875,153.07170581817627L168.48307291666669,153.91410867373148L170.88997395833334,153.25088739395142L173.296875,153.31039889653522L175.70377604166666,154.6749153137207L178.11067708333334,152.25919938087463L180.517578125,157.5748467842738L182.92447916666666,160.02817002932233L185.33138020833334,161.75079874197644L187.73828125,153.5562284787496L190.14518229166666,155.31372618675232L192.55208333333331,151.55415781339008L194.958984375,157.41307977835336L197.36588541666666,155.67308338483176L199.77278645833334,161.35053324699402L202.1796875,159.8658403555552L204.58658854166669,155.76333530743918L206.99348958333334,163.90621280670166L209.400390625,156.86343534787494L211.80729166666666,162.21214652061462L214.21419270833334,158.11605588595071L216.62109375,161.3967423439026L219.02799479166666,156.71114460627237L221.43489583333334,160.99973094463348L223.841796875,154.28242166837057L226.24869791666666,155.4309720993042L228.65559895833331,156.11356790860495L231.0625,157.47660732269287L233.46940104166666,157.14364862442017L235.87630208333334,157.10971037546793L238.283203125,161.23748155434927L240.69010416666669,157.89501416683197L243.09700520833334,160.71488972504932L245.50390625,161.85465315977734L247.91080729166666,159.93255166212717L250.31770833333334,153.82900047302246L252.724609375,158.18122220039368L255.13151041666666,158.29978334903717L257.53841145833337,160.87945131460827L259.9453125,157.6891691684723L262.3522135416667,161.74400218327838L264.7591145833333,161.00928692022958" style="fill: none;" fill="none"></path></g><g><path stroke="rgb(204, 51, 17)" stroke-width="2px" d="M26.475911458333332,14.261885643005364L28.8828125,19.829596519470208L31.289713541666668,32.421915372212716L33.696614583333336,46.25486056009929L36.103515625,56.62677017847698L38.510416666666664,72.0680357615153L40.917317708333336,70.48843955993652L43.32421875,77.44586499532063L45.731119791666664,93.00916385650635L48.13802083333333,92.70938380559285L50.544921875,92.34290885925293L52.951822916666664,97.70529286066692L55.358723958333336,107.90263477961221L57.765625,106.58475414911906L60.17252604166667,105.49431324005127L62.579427083333336,111.66468826929727L64.986328125,117.44717884063722L67.39322916666667,115.46218045552573L69.80013020833333,114.15330251057944L72.20703125,121.81269828478496L74.61393229166667,122.78922239939371L77.02083333333333,118.0687251885732L79.427734375,122.66427262624104L81.83463541666667,124.90629768371583L84.24153645833334,122.90826884905496L86.6484375,126.459814230601L89.05533854166667,120.18051608403523L91.46223958333333,128.09324367841086L93.869140625,125.83857734998067L96.27604166666666,132.11963852246603L98.68294270833333,129.9457197189331L101.08984375,130.67356808980307L103.49674479166667,128.41435821851096L105.90364583333333,136.87332844734192L108.310546875,133.06359354654947L110.71744791666667,127.6571385860443L113.12434895833333,135.54213134447733L115.53125,140.41122913360596L117.93815104166667,137.36576596895853L120.34505208333334,136.80438288052875L122.751953125,140.53442994753522L125.15885416666667,136.52093895276388L127.56575520833333,137.89341711997986L129.97265625,135.00041818618774L132.37955729166666,140.6271998087565L134.78645833333334,139.0816731452942L137.193359375,139.7713398138682L139.60026041666666,140.41570703188577L142.00716145833331,145.37585854530334L144.4140625,148.30498544375104L146.82096354166666,147.12728881835938L149.22786458333334,141.01906514167786L151.634765625,145.38323418299356L154.04166666666666,145.19315560658774L156.44856770833331,148.0996867020925L158.85546875,141.26015424728394L161.26236979166666,147.47258400917053L163.66927083333334,150.59882283210754L166.076171875,148.89096649487814L168.48307291666669,145.32275676727295L170.88997395833334,149.6510510444641L173.296875,153.9235802491506L175.70377604166666,146.67172479629517L178.11067708333334,153.00768359502158L180.517578125,151.72607159614563L182.92447916666666,148.01727930704752L185.33138020833334,155.2110252380371L187.73828125,146.9815906683604L190.14518229166666,148.40876483917236L192.55208333333331,154.56966360410055L194.958984375,150.78310124079388L197.36588541666666,151.7386659781138L199.77278645833334,152.5581119855245L202.1796875,153.7725461324056L204.58658854166669,152.47731757164001L206.99348958333334,158.26500344276428L209.400390625,153.39325642585754L211.80729166666666,152.7074252764384L214.21419270833334,157.15243562062582L216.62109375,158.6649477481842L219.02799479166666,148.97542762756348L221.43489583333334,153.85826388994855L223.841796875,157.8209811449051L226.24869791666666,160.5663571357727L228.65559895833331,161.50200108687082L231.0625,150.63860813776654L233.46940104166666,156.800937016805L235.87630208333334,160.15777587890625L238.283203125,157.2218078772227L240.69010416666669,159.34297188123068L243.09700520833334,159.55592759450275L245.50390625,163.97767396767932L247.91080729166666,161.95933985710144L250.31770833333334,156.66076707839966" style="fill: none;" fill="none"></path></g><g><path stroke="rgb(255, 112, 67)" stroke-width="2px" d="M26.475911458333332,15.616039594014483L28.8828125,20.581789652506504L31.289713541666668,29.80415948232014L33.696614583333336,47.400714874267585L36.103515625,60.67888832092286L38.510416666666664,69.486328125L40.917317708333336,79.23301998774211L43.32421875,91.50564034779866L45.731119791666664,95.20754464467366L48.13802083333333,105.82804091771443L50.544921875,103.06388823191324L52.951822916666664,107.08596928914389L55.358723958333336,106.7728164990743L57.765625,108.60838905970255L60.17252604166667,113.79643042882283L62.579427083333336,110.99095916748047L64.986328125,114.326566696167L67.39322916666667,115.40183432896933L69.80013020833333,121.83977198600768L72.20703125,119.72382672627766L74.61393229166667,122.28285884857178L77.02083333333333,121.89116700490315L79.427734375,123.13720901807149L81.83463541666667,125.0629537900289L84.24153645833334,128.12362774213156L86.6484375,122.55911000569661L89.05533854166667,125.93628462155661L91.46223958333333,125.70489215850831L93.869140625,126.11392823855083L96.27604166666666,130.24785828590393L98.68294270833333,126.5619056224823L101.08984375,130.16577911376953L103.49674479166667,133.06977820396423L105.90364583333333,125.04450766245525L108.310546875,133.53224897384644L110.71744791666667,133.8680772781372L113.12434895833333,129.38045422236124L115.53125,138.89006598790488L117.93815104166667,133.21394308408102L120.34505208333334,136.83468254407245L122.751953125,133.80277029673258L125.15885416666667,138.59632523854572L127.56575520833333,132.2060361703237L129.97265625,135.3773306210836L132.37955729166666,137.5927836894989L134.78645833333334,135.0269526640574L137.193359375,141.99557987848917L139.60026041666666,145.61065983772278L142.00716145833331,138.86847360928851L144.4140625,140.88186327616376L146.82096354166666,139.68296813964844L149.22786458333334,141.00615660349527L151.634765625,143.62764954566956L154.04166666666666,148.79593658447266L156.44856770833331,144.33821932474774L158.85546875,144.5047690073649L161.26236979166666,144.6323726971944L163.66927083333334,148.00260305404663L166.076171875,142.62701511383057L168.48307291666669,149.7549804846446L170.88997395833334,146.83035961786905L173.296875,149.86508989334106L175.70377604166666,150.48576879501343L178.11067708333334,148.53944444656372L180.517578125,150.56163048744202L182.92447916666666,148.120955546697L185.33138020833334,147.89513818422955L187.73828125,144.7164212067922L190.14518229166666,147.57931741078696L192.55208333333331,153.3034827709198L194.958984375,151.33043638865155L197.36588541666666,145.53908379872638L199.77278645833334,149.76435359319052L202.1796875,148.0856012503306L204.58658854166669,151.79964979489645L206.99348958333334,150.35359811782837L209.400390625,154.7547907034556L211.80729166666666,145.3377799987793L214.21419270833334,150.29053243001303L216.62109375,148.96618111928305L219.02799479166666,150.9646741549174L221.43489583333334,153.61520075798035L223.841796875,147.85544665654498L226.24869791666666,157.42264982064563L228.65559895833331,154.99609549840292L231.0625,150.78236039479572L233.46940104166666,153.2796912988027L235.87630208333334,154.02260041236877L238.283203125,150.70966839790344L240.69010416666669,156.71470816930136L243.09700520833334,150.98360792795816L245.50390625,146.94613790512085L247.91080729166666,150.9941579500834L250.31770833333334,156.1766101519267L252.724609375,151.25724267959595L255.13151041666666,148.10939272244772L257.53841145833337,148.62220350901288L259.9453125,150.34112095832825L262.3522135416667,153.4195377031962L264.7591145833333,157.9978581269582" style="fill: none;" fill="none"></path></g></g></g></g></g></g><g transform="translate(41, 177)" clip-path="url(#clip_1)"><clipPath id="clip_1"><rect width="288" height="23"></rect></clipPath><g><g><line x1="0" y1="0" x2="0" y2="5" style="visibility: inherit;" fill="rgb(0, 0, 0)" stroke="rgb(204, 204, 204)" stroke-width="1px"></line><line x1="24.069010416666664" y1="0" x2="24.069010416666664" y2="5" style="visibility: inherit;" fill="rgb(0, 0, 0)" stroke="rgb(204, 204, 204)" stroke-width="1px"></line><line x1="48.13802083333333" y1="0" x2="48.13802083333333" y2="5" style="visibility: inherit;" fill="rgb(0, 0, 0)" stroke="rgb(204, 204, 204)" stroke-width="1px"></line><line x1="72.20703125" y1="0" x2="72.20703125" y2="5" style="visibility: inherit;" fill="rgb(0, 0, 0)" stroke="rgb(204, 204, 204)" stroke-width="1px"></line><line x1="96.27604166666666" y1="0" x2="96.27604166666666" y2="5" style="visibility: inherit;" fill="rgb(0, 0, 0)" stroke="rgb(204, 204, 204)" stroke-width="1px"></line><line x1="120.34505208333334" y1="0" x2="120.34505208333334" y2="5" style="visibility: inherit;" fill="rgb(0, 0, 0)" stroke="rgb(204, 204, 204)" stroke-width="1px"></line><line x1="144.4140625" y1="0" x2="144.4140625" y2="5" style="visibility: inherit;" fill="rgb(0, 0, 0)" stroke="rgb(204, 204, 204)" stroke-width="1px"></line><line x1="168.48307291666669" y1="0" x2="168.48307291666669" y2="5" style="visibility: inherit;" fill="rgb(0, 0, 0)" stroke="rgb(204, 204, 204)" stroke-width="1px"></line><line x1="192.55208333333331" y1="0" x2="192.55208333333331" y2="5" style="visibility: inherit;" fill="rgb(0, 0, 0)" stroke="rgb(204, 204, 204)" stroke-width="1px"></line><line x1="216.62109375" y1="0" x2="216.62109375" y2="5" style="visibility: inherit;" fill="rgb(0, 0, 0)" stroke="rgb(204, 204, 204)" stroke-width="1px"></line><line x1="240.69010416666669" y1="0" x2="240.69010416666669" y2="5" style="visibility: inherit;" fill="rgb(0, 0, 0)" stroke="rgb(204, 204, 204)" stroke-width="1px"></line><line x1="264.7591145833333" y1="0" x2="264.7591145833333" y2="5" style="visibility: inherit;" fill="rgb(0, 0, 0)" stroke="rgb(204, 204, 204)" stroke-width="1px"></line><line x1="288.828125" y1="0" x2="288.828125" y2="5" style="visibility: inherit;" fill="rgb(0, 0, 0)" stroke="rgb(204, 204, 204)" stroke-width="1px"></line></g><g transform="translate(0, 8)"><text x="0" y="0" dx="0em" dy="0.95em" style="text-anchor: middle; visibility: hidden; font-family: Roboto, sans-serif; font-size: 12px; font-weight: 200;" fill="rgb(33, 33, 33)" stroke="none" stroke-width="1px">-10</text><text x="24.069010416666664" y="0" dx="0em" dy="0.95em" style="text-anchor: middle; visibility: inherit; font-family: Roboto, sans-serif; font-size: 12px; font-weight: 200;" fill="rgb(33, 33, 33)" stroke="none" stroke-width="1px">0</text><text x="48.13802083333333" y="0" dx="0em" dy="0.95em" style="text-anchor: middle; visibility: inherit; font-family: Roboto, sans-serif; font-size: 12px; font-weight: 200;" fill="rgb(33, 33, 33)" stroke="none" stroke-width="1px">10</text><text x="72.20703125" y="0" dx="0em" dy="0.95em" style="text-anchor: middle; visibility: inherit; font-family: Roboto, sans-serif; font-size: 12px; font-weight: 200;" fill="rgb(33, 33, 33)" stroke="none" stroke-width="1px">20</text><text x="96.27604166666666" y="0" dx="0em" dy="0.95em" style="text-anchor: middle; visibility: inherit; font-family: Roboto, sans-serif; font-size: 12px; font-weight: 200;" fill="rgb(33, 33, 33)" stroke="none" stroke-width="1px">30</text><text x="120.34505208333334" y="0" dx="0em" dy="0.95em" style="text-anchor: middle; visibility: inherit; font-family: Roboto, sans-serif; font-size: 12px; font-weight: 200;" fill="rgb(33, 33, 33)" stroke="none" stroke-width="1px">40</text><text x="144.4140625" y="0" dx="0em" dy="0.95em" style="text-anchor: middle; visibility: inherit; font-family: Roboto, sans-serif; font-size: 12px; font-weight: 200;" fill="rgb(33, 33, 33)" stroke="none" stroke-width="1px">50</text><text x="168.48307291666669" y="0" dx="0em" dy="0.95em" style="text-anchor: middle; visibility: inherit; font-family: Roboto, sans-serif; font-size: 12px; font-weight: 200;" fill="rgb(33, 33, 33)" stroke="none" stroke-width="1px">60</text><text x="192.55208333333331" y="0" dx="0em" dy="0.95em" style="text-anchor: middle; visibility: inherit; font-family: Roboto, sans-serif; font-size: 12px; font-weight: 200;" fill="rgb(33, 33, 33)" stroke="none" stroke-width="1px">70</text><text x="216.62109375" y="0" dx="0em" dy="0.95em" style="text-anchor: middle; visibility: inherit; font-family: Roboto, sans-serif; font-size: 12px; font-weight: 200;" fill="rgb(33, 33, 33)" stroke="none" stroke-width="1px">80</text><text x="240.69010416666669" y="0" dx="0em" dy="0.95em" style="text-anchor: middle; visibility: inherit; font-family: Roboto, sans-serif; font-size: 12px; font-weight: 200;" fill="rgb(33, 33, 33)" stroke="none" stroke-width="1px">90</text><text x="264.7591145833333" y="0" dx="0em" dy="0.95em" style="text-anchor: middle; visibility: inherit; font-family: Roboto, sans-serif; font-size: 12px; font-weight: 200;" fill="rgb(33, 33, 33)" stroke="none" stroke-width="1px">100</text><text x="288.828125" y="0" dx="0em" dy="0.95em" style="text-anchor: middle; visibility: hidden; font-family: Roboto, sans-serif; font-size: 12px; font-weight: 200;" fill="rgb(33, 33, 33)" stroke="none" stroke-width="1px">110</text></g><line x1="0" y1="0" x2="288.828125" y2="0" fill="rgb(0, 0, 0)" stroke="rgb(204, 204, 204)" stroke-width="1px"></line></g></g></g></g></svg>