<svg viewBox="0 0 330 200" xmlns="http://www.w3.org/2000/svg"><g><g><g><g><g><line x1="30.78125" y1="177" x2="25.78125" y2="177" style="visibility: inherit;" fill="rgb(0, 0, 0)" stroke="rgb(204, 204, 204)" stroke-width="1px"></line><line x1="30.78125" y1="162.25" x2="25.78125" y2="162.25" style="visibility: inherit;" fill="rgb(0, 0, 0)" stroke="rgb(204, 204, 204)" stroke-width="1px"></line><line x1="30.78125" y1="147.5" x2="25.78125" y2="147.5" style="visibility: inherit;" fill="rgb(0, 0, 0)" stroke="rgb(204, 204, 204)" stroke-width="1px"></line><line x1="30.78125" y1="132.75" x2="25.78125" y2="132.75" style="visibility: inherit;" fill="rgb(0, 0, 0)" stroke="rgb(204, 204, 204)" stroke-width="1px"></line><line x1="30.78125" y1="118.00000000000001" x2="25.78125" y2="118.00000000000001" style="visibility: inherit;" fill="rgb(0, 0, 0)" stroke="rgb(204, 204, 204)" stroke-width="1px"></line><line x1="30.78125" y1="103.24999999999999" x2="25.78125" y2="103.24999999999999" style="visibility: inherit;" fill="rgb(0, 0, 0)" stroke="rgb(204, 204, 204)" stroke-width="1px"></line><line x1="30.78125" y1="88.5" x2="25.78125" y2="88.5" style="visibility: inherit;" fill="rgb(0, 0, 0)" stroke="rgb(204, 204, 204)" stroke-width="1px"></line><line x1="30.78125" y1="73.75" x2="25.78125" y2="73.75" style="visibility: inherit;" fill="rgb(0, 0, 0)" stroke="rgb(204, 204, 204)" stroke-width="1px"></line><line x1="30.78125" y1="59.00000000000001" x2="25.78125" y2="59.00000000000001" style="visibility: inherit;" fill="rgb(0, 0, 0)" stroke="rgb(204, 204, 204)" stroke-width="1px"></line><line x1="30.78125" y1="44.25" x2="25.78125" y2="44.25" style="visibility: inherit;" fill="rgb(0, 0, 0)" stroke="rgb(204, 204, 204)" stroke-width="1px"></line><line x1="30.78125" y1="29.499999999999993" x2="25.78125" y2="29.499999999999993" style="visibility: inherit;" fill="rgb(0, 0, 0)" stroke="rgb(204, 204, 204)" stroke-width="1px"></line><line x1="30.78125" y1="14.750000000000007" x2="25.78125" y2="14.750000000000007" style="visibility: inherit;" fill="rgb(0, 0, 0)" stroke="rgb(204, 204, 204)" stroke-width="1px"></line><line x1="30.78125" y1="0" x2="25.78125" y2="0" style="visibility: inherit;" fill="rgb(0, 0, 0)" stroke="rgb(204, 204, 204)" stroke-width="1px"></line></g><g transform="translate(20.78125, 0)"><text x="0" y="177" dx="0em" dy="0.3em" style="text-anchor: end; visibility: hidden; font-family: Roboto, sans-serif; font-size: 12px; font-weight: 200;" fill="rgb(33, 33, 33)" stroke="none" stroke-width="1px">-6</text><text x="0" y="162.25" dx="0em" dy="0.3em" style="text-anchor: end; visibility: inherit; font-family: Roboto, sans-serif; font-size: 12px; font-weight: 200;" fill="rgb(33, 33, 33)" stroke="none" stroke-width="1px">-5</text><text x="0" y="147.5" dx="0em" dy="0.3em" style="text-anchor: end; visibility: hidden; font-family: Roboto, sans-serif; font-size: 12px; font-weight: 200;" fill="rgb(33, 33, 33)" stroke="none" stroke-width="1px">-4</text><text x="0" y="132.75" dx="0em" dy="0.3em" style="text-anchor: end; visibility: inherit; font-family: Roboto, sans-serif; font-size: 12px; font-weight: 200;" fill="rgb(33, 33, 33)" stroke="none" stroke-width="1px">-3</text><text x="0" y="118.00000000000001" dx="0em" dy="0.3em" style="text-anchor: end; visibility: hidden; font-family: Roboto, sans-serif; font-size: 12px; font-weight: 200;" fill="rgb(33, 33, 33)" stroke="none" stroke-width="1px">-2</text><text x="0" y="103.24999999999999" dx="0em" dy="0.3em" style="text-anchor: end; visibility: inherit; font-family: Roboto, sans-serif; font-size: 12px; font-weight: 200;" fill="rgb(33, 33, 33)" stroke="none" stroke-width="1px">-1</text><text x="0" y="88.5" dx="0em" dy="0.3em" style="text-anchor: end; visibility: hidden; font-family: Roboto, sans-serif; font-size: 12px; font-weight: 200;" fill="rgb(33, 33, 33)" stroke="none" stroke-width="1px">0</text><text x="0" y="73.75" dx="0em" dy="0.3em" style="text-anchor: end; visibility: inherit; font-family: Roboto, sans-serif; font-size: 12px; font-weight: 200;" fill="rgb(33, 33, 33)" stroke="none" stroke-width="1px">1</text><text x="0" y="59.00000000000001" dx="0em" dy="0.3em" style="text-anchor: end; visibility: hidden; font-family: Roboto, sans-serif; font-size: 12px; font-weight: 200;" fill="rgb(33, 33, 33)" stroke="none" stroke-width="1px">2</text><text x="0" y="44.25" dx="0em" dy="0.3em" style="text-anchor: end; visibility: inherit; font-family: Roboto, sans-serif; font-size: 12px; font-weight: 200;" fill="rgb(33, 33, 33)" stroke="none" stroke-width="1px">3</text><text x="0" y="29.499999999999993" dx="0em" dy="0.3em" style="text-anchor: end; visibility: hidden; font-family: Roboto, sans-serif; font-size: 12px; font-weight: 200;" fill="rgb(33, 33, 33)" stroke="none" stroke-width="1px">4</text><text x="0" y="14.750000000000007" dx="0em" dy="0.3em" style="text-anchor: end; visibility: inherit; font-family: Roboto, sans-serif; font-size: 12px; font-weight: 200;" fill="rgb(33, 33, 33)" stroke="none" stroke-width="1px">5</text><text x="0" y="0" dx="0em" dy="0.3em" style="text-anchor: end; visibility: hidden; font-family: Roboto, sans-serif; font-size: 12px; font-weight: 200;" fill="rgb(33, 33, 33)" stroke="none" stroke-width="1px">6</text></g><line x1="30.78125" y1="0" x2="30.78125" y2="177" fill="rgb(0, 0, 0)" stroke="rgb(204, 204, 204)" stroke-width="1px"></line></g></g><g transform="translate(30, 0)" clip-path="url(#clip_0)"><clipPath id="clip_0"><rect width="299" height="177"></rect></clipPath><g><g><g><line x1="0" y1="0" x2="0" y2="177" fill="rgb(0, 0, 0)" stroke="rgb(66, 66, 66)" stroke-width="1px" opacity="0.25"></line><line x1="24.934895833333332" y1="0" x2="24.934895833333332" y2="177" fill="rgb(0, 0, 0)" stroke="rgb(66, 66, 66)" stroke-width="1px" opacity="0.25"></line><line x1="49.869791666666664" y1="0" x2="49.869791666666664" y2="177" fill="rgb(0, 0, 0)" stroke="rgb(66, 66, 66)" stroke-width="1px" opacity="0.25"></line><line x1="74.8046875" y1="0" x2="74.8046875" y2="177" fill="rgb(0, 0, 0)" stroke="rgb(66, 66, 66)" stroke-width="1px" opacity="0.25"></line><line x1="99.73958333333333" y1="0" x2="99.73958333333333" y2="177" fill="rgb(0, 0, 0)" stroke="rgb(66, 66, 66)" stroke-width="1px" opacity="0.25"></line><line x1="124.67447916666667" y1="0" x2="124.67447916666667" y2="177" fill="rgb(0, 0, 0)" stroke="rgb(66, 66, 66)" stroke-width="1px" opacity="0.25"></line><line x1="149.609375" y1="0" x2="149.609375" y2="177" fill="rgb(0, 0, 0)" stroke="rgb(66, 66, 66)" stroke-width="1px" opacity="0.25"></line><line x1="174.54427083333334" y1="0" x2="174.54427083333334" y2="177" fill="rgb(0, 0, 0)" stroke="rgb(66, 66, 66)" stroke-width="1px" opacity="0.25"></line><line x1="199.47916666666666" y1="0" x2="199.47916666666666" y2="177" fill="rgb(0, 0, 0)" stroke="rgb(66, 66, 66)" stroke-width="1px" opacity="0.25"></line><line x1="224.4140625" y1="0" x2="224.4140625" y2="177" fill="rgb(0, 0, 0)" stroke="rgb(66, 66, 66)" stroke-width="1px" opacity="0.25"></line><line x1="249.34895833333334" y1="0" x2="249.34895833333334" y2="177" fill="rgb(0, 0, 0)" stroke="rgb(66, 66, 66)" stroke-width="1px" opacity="0.25"></line><line x1="274.28385416666663" y1="0" x2="274.28385416666663" y2="177" fill="rgb(0, 0, 0)" stroke="rgb(66, 66, 66)" stroke-width="1px" opacity="0.25"></line><line x1="299.21875" y1="0" x2="299.21875" y2="177" fill="rgb(0, 0, 0)" stroke="rgb(66, 66, 66)" stroke-width="1px" opacity="0.25"></line></g><g><line x1="0" y1="177" x2="299.21875" y2="177" fill="rgb(0, 0, 0)" stroke="rgb(66, 66, 66)" stroke-width="1px" opacity="0.25"></line><line x1="0" y1="162.25" x2="299.21875" y2="162.25" fill="rgb(0, 0, 0)" stroke="rgb(66, 66, 66)" stroke-width="1px" opacity="0.25"></line><line x1="0" y1="147.5" x2="299.21875" y2="147.5" fill="rgb(0, 0, 0)" stroke="rgb(66, 66, 66)" stroke-width="1px" opacity="0.25"></line><line x1="0" y1="132.75" x2="299.21875" y2="132.75" fill="rgb(0, 0, 0)" stroke="rgb(66, 66, 66)" stroke-width="1px" opacity="0.25"></line><line x1="0" y1="118.00000000000001" x2="299.21875" y2="118.00000000000001" fill="rgb(0, 0, 0)" stroke="rgb(66, 66, 66)" stroke-width="1px" opacity="0.25"></line><line x1="0" y1="103.24999999999999" x2="299.21875" y2="103.24999999999999" fill="rgb(0, 0, 0)" stroke="rgb(66, 66, 66)" stroke-width="1px" opacity="0.25"></line><line x1="0" y1="88.5" x2="299.21875" y2="88.5" fill="rgb(0, 0, 0)" stroke="rgb(66, 66, 66)" stroke-width="1px" opacity="0.25"></line><line x1="0" y1="73.75" x2="299.21875" y2="73.75" fill="rgb(0, 0, 0)" stroke="rgb(66, 66, 66)" stroke-width="1px" opacity="0.25"></line><line x1="0" y1="59.00000000000001" x2="299.21875" y2="59.00000000000001" fill="rgb(0, 0, 0)" stroke="rgb(66, 66, 66)" stroke-width="1px" opacity="0.25"></line><line x1="0" y1="44.25" x2="299.21875" y2="44.25" fill="rgb(0, 0, 0)" stroke="rgb(66, 66, 66)" stroke-width="1px" opacity="0.25"></line><line x1="0" y1="29.499999999999993" x2="299.21875" y2="29.499999999999993" fill="rgb(0, 0, 0)" stroke="rgb(66, 66, 66)" stroke-width="1px" opacity="0.25"></line><line x1="0" y1="14.750000000000007" x2="299.21875" y2="14.750000000000007" fill="rgb(0, 0, 0)" stroke="rgb(66, 66, 66)" stroke-width="1px" opacity="0.25"></line><line x1="0" y1="0" x2="299.21875" y2="0" fill="rgb(0, 0, 0)" stroke="rgb(66, 66, 66)" stroke-width="1px" opacity="0.25"></line></g></g></g><g><g><line x1="0" y1="88.5" x2="299.21875" y2="88.5" fill="rgb(0, 0, 0)" stroke="rgb(153, 153, 153)" stroke-width="1.5px"></line></g></g><g><g><line x1="24.934895833333332" y1="0" x2="24.934895833333332" y2="177" fill="rgb(0, 0, 0)" stroke="rgb(153, 153, 153)" stroke-width="1.5px"></line></g></g><g><g><g><g><g><path stroke="rgb(51, 187, 238)" stroke-width="2px" d="M27.428385416666664,21.090739130973816L27.428385416666664,21.963836536891225L29.921875,24.012141841578853L32.415364583333336,28.173122650461043L34.908854166666664,32.51512564031093L37.40234375,36.17133931520954L39.895833333333336,39.84888078116039L42.389322916666664,43.138079498950816L44.8828125,47.3182711781407L47.37630208333333,49.61652439056645L49.869791666666664,51.33730129588385L52.36328125,54.354542006495194L54.85677083333333,56.72763400040333L57.35026041666667,58.42478479111843L59.84375,61.39634982924575L62.337239583333336,62.95937384622691L64.83072916666667,64.82033448096564L67.32421875,66.42809454652946L69.81770833333333,68.4618326185959L72.31119791666667,70.17563052273239L74.8046875,72.86848548835388L77.29817708333334,82.5191010844809L79.79166666666667,93.69526974110025L82.28515625,101.53066068846597L84.77864583333333,109.44933534511377L87.27213541666667,113.84150653134891L89.765625,118.42383701367835L92.25911458333334,119.8916224770051L94.75260416666666,119.85481096357562L97.24609375,124.53165806261029L99.73958333333333,126.32663936247837L102.23307291666667,131.89348891559436L104.7265625,131.8233542978229L107.22005208333333,132.2649271590523L109.71354166666666,130.03734884645695L112.20703125,136.40768147276987L114.70052083333334,131.05087430415983L117.19401041666667,131.56745100106133L119.6875,133.72412400761203L122.18098958333333,133.97566307207242L124.67447916666667,131.23366913937951L127.16796875,132.94672608365912L129.66145833333334,132.82567110319508L132.15494791666666,134.2228524284609L134.6484375,136.3367418629734L137.14192708333331,138.67643996184128L139.63541666666666,138.1735486121472L142.12890625,139.50580366084995L144.62239583333334,139.46941940840622L147.11588541666666,145.12315056017718L149.609375,145.27208359307573L152.10286458333331,142.40719401993616L154.59635416666669,143.99019312985916L157.08984375,143.3191908488942L159.58333333333334,145.27088054712493L162.07682291666666,145.93707036492245L164.5703125,144.7850202786963L167.06380208333334,141.2931627467648L169.55729166666666,142.6615582873327L172.05078125,144.7578157336714L174.54427083333334,146.21779588501332L177.03776041666666,147.10355424419038L179.53125,147.9621221403306L182.02473958333331,150.133541279605L184.51822916666669,153.1279598646934L187.01171875,152.26459984487067L189.50520833333331,154.4207730657062L191.99869791666669,156.0038432419866L194.4921875,152.8893144632057L196.98567708333334,151.47079629634817L199.47916666666666,149.97363885700292L201.97265625,151.74441960005842L204.46614583333334,151.53430731640847L206.95963541666666,151.39055589209605L209.453125,149.17542279994703L211.94661458333334,149.483907029003L214.44010416666666,148.96353484053822L216.93359375,149.5469192477447L219.42708333333331,149.82601512710286L221.92057291666669,147.78254469183724L224.4140625,150.56601529780434L226.90755208333331,149.2242763644506L229.40104166666669,147.72414754970342L231.89453125,147.21053576150456L234.38802083333334,148.46170238323396L236.88151041666666,143.729307594482L239.375,142.52035279012966L241.86848958333334,141.88534757424864L244.36197916666666,145.22527771764987L246.85546875,139.21702694138867L249.34895833333334,142.73100205411296L251.84244791666666,141.64204103259817L254.3359375,142.68848525353997L256.8294270833333,142.35210625012542L259.3229166666667,139.253166286328L261.81640625,139.88523904326507L264.3098958333333,142.89997517552123L266.8033854166667,142.51921837704833L269.296875,144.9870065287119L271.7903645833333,142.82314026809135L274.28385416666663,137.07399470389768" style="fill: none;" fill="none"></path></g><g><path stroke="rgb(204, 51, 17)" stroke-width="2px" d="M27.428385416666664,21.207162141799934L29.921875,23.823249599208L32.415364583333336,27.800479124930487L34.908854166666664,32.264155119238005L37.40234375,37.519982583659186L39.895833333333336,42.07293935050643L42.389322916666664,48.81811999060472L44.8828125,58.13253855504383L47.37630208333333,66.92682672321091L49.869791666666664,79.32533846244387L52.36328125,92.61671700170189L54.85677083333333,103.26123263500526L57.35026041666667,111.16739881589002L59.84375,115.94877003719972L62.337239583333336,122.72621258190958L64.83072916666667,129.39868426070035L67.32421875,130.51761387070687L69.81770833333333,130.26615726840961L72.31119791666667,131.24392155420827L74.8046875,130.0740437509829L77.29817708333334,134.2345820558405L79.79166666666667,136.20780104666497L82.28515625,141.96727449155586L84.77864583333333,146.68341175122555L87.27213541666667,147.09408612373122L89.765625,151.6183214280123L92.25911458333334,151.03790394500535L94.75260416666666,148.79919381462537L97.24609375,148.24618233046343L99.73958333333333,149.3473941532079L102.23307291666667,149.55551462403912L104.7265625,150.63837819749202L107.22005208333333,153.31243508764743L109.71354166666666,155.05331875757864L112.20703125,152.03541088279573L114.70052083333334,152.1657330530005L117.19401041666667,151.99690399050274L119.6875,152.40534310507311L122.18098958333333,156.2568290893373L124.67447916666667,155.25160086453823L127.16796875,155.18574409547972L129.66145833333334,154.79251401732856L132.15494791666666,159.41496387120856L134.6484375,156.35862158544555L137.14192708333331,155.26607370923549L139.63541666666666,155.47457394795953L142.12890625,158.98035933260675L144.62239583333334,160.9779438723666L147.11588541666666,155.83831320892537L149.609375,155.91956255337738L152.10286458333331,157.2485648351151L154.59635416666669,157.629964047552L157.08984375,159.56584227906845L159.58333333333334,163.13873151074574L162.07682291666666,157.82657470835935L164.5703125,155.42791615417934L167.06380208333334,157.76363717297636L169.55729166666666,156.50248465148556L172.05078125,151.6070986458704L174.54427083333334,152.852276274298L177.03776041666666,153.6682592852081L179.53125,155.68725142442747L182.02473958333331,157.15076154438427L184.51822916666669,156.78491254532528L187.01171875,155.18812893511588L189.50520833333331,151.37514034223307L191.99869791666669,153.89188200048883L194.4921875,154.6374458555162L196.98567708333334,151.5386981739143L199.47916666666666,153.92483955818776L201.97265625,154.92142415350662L204.46614583333334,150.45104097457977L206.95963541666666,147.91808599337557L209.453125,149.222153445402L211.94661458333334,154.7197369723687L214.44010416666666,155.7060871881633L216.93359375,156.68054984936168L219.42708333333331,156.1583958787013L221.92057291666669,153.89524599347993L224.4140625,149.51610887012922L226.90755208333331,150.45199809047517L229.40104166666669,153.0352117363741L231.89453125,150.83112501546117L234.38802083333334,151.95131995576003L236.88151041666666,152.3176813559299L239.375,154.22426315412207L241.86848958333334,155.1248432784517L244.36197916666666,153.80944342734335L246.85546875,154.70001031963452L249.34895833333334,155.23029803292076L251.84244791666666,154.8492215237586L254.3359375,154.1338320778942L256.8294270833333,154.53804301422574L259.3229166666667,155.44380061051513" style="fill: none;" fill="none"></path></g><g><path stroke="rgb(255, 112, 67)" stroke-width="2px" d="M27.428385416666664,22.002197742462158L29.921875,24.74332385823346L32.415364583333336,27.794460950113617L34.908854166666664,31.812407458432045L37.40234375,37.34405799054895L39.895833333333336,42.79970320292724L42.389322916666664,46.82613764521293L44.8828125,51.27060841100481L47.37630208333333,54.807363840966204L49.869791666666664,56.34423456536162L52.36328125,59.32162912612918L54.85677083333333,63.56856427394197L57.35026041666667,69.05167941285099L59.84375,76.43392728095903L62.337239583333336,85.59112422529923L64.83072916666667,91.94516674800637L67.32421875,101.0082043235516L69.81770833333333,109.28373264314679L72.31119791666667,114.83671014426906L74.8046875,118.97086205672515L77.29817708333334,120.8510520703668L79.79166666666667,121.57499514126336L82.28515625,124.97729136744564L84.77864583333333,127.67491008023723L87.27213541666667,130.6933323209917L89.765625,134.48757505955982L92.25911458333334,135.04086086796738L94.75260416666666,139.7754954327038L97.24609375,140.7868415236104L99.73958333333333,144.56394162334882L102.23307291666667,143.6878076850536L104.7265625,144.8312387358556L107.22005208333333,141.935268899343L109.71354166666666,142.65230554249106L112.20703125,142.82335268489268L114.70052083333334,143.9357487307274L117.19401041666667,147.16512502966992L119.6875,147.1619964063953L122.18098958333333,148.57388666709042L124.67447916666667,145.9900687133674L127.16796875,146.29535342306946L129.66145833333334,147.09025110254692L132.15494791666666,147.3385853582299L134.6484375,146.1840526913018L137.14192708333331,146.37780664332718L139.63541666666666,147.1714672514928L142.12890625,145.2891302804695L144.62239583333334,145.9983850360017L147.11588541666666,144.20335696318256L149.609375,144.08090467252194L152.10286458333331,145.59849242357842L154.59635416666669,145.51385496582603L157.08984375,147.5036886808015L159.58333333333334,147.21762780923842L162.07682291666666,149.5903149683662L164.5703125,150.9543897480641L167.06380208333334,151.8274755209772L169.55729166666666,152.06488416823544L172.05078125,152.25231052962275L174.54427083333334,151.41225077365408L177.03776041666666,148.63723313117782L179.53125,152.28992117347465L182.02473958333331,150.7428389008492L184.51822916666669,148.50771087163844L187.01171875,151.80611965903827L189.50520833333331,151.43345676280993L191.99869791666669,153.38136574168126L194.4921875,149.67692517709858L196.98567708333334,146.48068334006288L199.47916666666666,147.92929643191988L201.97265625,148.53880144070646L204.46614583333334,151.73733651428267L206.95963541666666,150.06206296817618L209.453125,151.26600573196328L211.94661458333334,149.1871582090891L214.44010416666666,145.7168578583675L216.93359375,141.56413197778707L219.42708333333331,144.99557425275566L221.92057291666669,146.31181174844693L224.4140625,146.43800742119026L226.90755208333331,145.77153452684027L229.40104166666669,145.60075086778258L231.89453125,145.97590040722332L234.38802083333334,148.79050790648347L236.88151041666666,150.48430926950005L239.375,152.78313793172305L241.86848958333334,156.26106416123014L244.36197916666666,154.83333414623317L246.85546875,155.47938593354004L249.34895833333334,150.5667470906312L251.84244791666666,148.20423302851546L254.3359375,148.3905425867117L256.8294270833333,141.6654258306308L259.3229166666667,147.42875086647567L261.81640625,148.51291000994217L264.3098958333333,151.21095952799254L266.8033854166667,153.67707464319966L269.296875,152.8260739215842L271.7903645833333,152.68629119666988L274.28385416666663,153.78022174197056" style="fill: none;" fill="none"></path></g></g></g></g><g opacity="0.2"><g><g><g><path stroke="rgb(51, 187, 238)" stroke-width="2px" d="M27.428385416666664,21.090739130973816L27.428385416666664,22.596832156181343L29.921875,26.573803663253777L32.415364583333336,34.96260803937913L34.908854166666664,40.79960119724273L37.40234375,43.87969422340393L39.895833333333336,48.13625538349151L42.389322916666664,50.89662295579911L44.8828125,57.49756431579589L47.37630208333333,55.34024655818939L49.869791666666664,55.69187879562378L52.36328125,62.077701687812805L54.85677083333333,62.852027595043175L57.35026041666667,62.83068138360978L59.84375,69.14363527297974L62.337239583333336,67.04695728421211L64.83072916666667,69.69791761040688L67.32421875,70.64882978796959L69.81770833333333,73.80708529055119L72.31119791666667,74.68379300832748L74.8046875,79.95640218257904L77.29817708333334,107.93193981051446L79.79166666666667,123.13478368520737L82.28515625,122.1749286055565L84.77864583333333,130.31655651330948L87.27213541666667,125.41713327169418L89.765625,130.50170236825943L92.25911458333334,123.7605828642845L94.75260416666666,119.75777435302734L97.24609375,136.8604292869568L99.73958333333333,131.0585571527481L102.23307291666667,146.56904143095016L104.7265625,131.6384602189064L107.22005208333333,133.42904514074326L109.71354166666666,124.16474717855455L112.20703125,153.20197749137878L114.70052083333334,116.9285151362419L117.19401041666667,132.92932575941086L119.6875,139.40987026691437L122.18098958333333,134.63880914449692L124.67447916666667,124.00479477643965L127.16796875,137.4629586338997L129.66145833333334,132.50652658939362L132.15494791666666,137.90632683038712L134.6484375,141.90971910953522L137.14192708333331,144.8447317481041L139.63541666666666,136.8477446436882L142.12890625,143.01811146736145L144.62239583333334,139.37349730730057L147.11588541666666,160.02843964099884L149.609375,145.6647251844406L152.10286458333331,134.85430389642715L154.59635416666669,148.16355419158936L157.08984375,141.55018490552902L159.58333333333334,150.41624414920807L162.07682291666666,147.6933889389038L164.5703125,141.74779736995697L167.06380208333334,132.08735662698746L169.55729166666666,146.26914650201797L172.05078125,150.28431260585785L174.54427083333334,150.06683444976807L177.03776041666666,149.43873536586761L179.53125,150.22561931610107L182.02473958333331,155.85819172859192L184.51822916666669,161.02233612537384L187.01171875,149.98846888542175L189.50520833333331,160.10522973537445L191.99869791666669,160.17739188671112L194.4921875,144.67828404903412L196.98567708333334,147.7310665845871L199.47916666666666,146.02658742666245L201.97265625,156.41284155845642L204.46614583333334,150.98037493228912L206.95963541666666,151.0115748643875L209.453125,143.33552646636963L211.94661458333334,150.29718363285065L214.44010416666666,147.59164452552795L216.93359375,151.08493268489838L219.42708333333331,150.5618133544922L221.92057291666669,142.39521354436874L224.4140625,157.90425598621368L226.90755208333331,145.68696463108063L229.40104166666669,143.7692624926567L231.89453125,145.85646831989288L234.38802083333334,151.76023256778717L236.88151041666666,131.25299406051636L239.375,139.3331083059311L241.86848958333334,140.21124291419983L244.36197916666666,154.03054809570312L246.85546875,123.37709307670595L249.34895833333334,151.9951182603836L251.84244791666666,138.77114379405975L254.3359375,145.44729274511337L256.8294270833333,141.46528887748718L259.3229166666667,131.08323365449905L261.81640625,141.55161267518997L264.3098958333333,150.84791588783264L266.8033854166667,141.51540499925613L269.296875,151.49299347400665L271.7903645833333,137.1184019446373L274.28385416666663,121.91715639829634" style="fill: none;" fill="none"></path></g><g><path stroke="rgb(204, 51, 17)" stroke-width="2px" d="M27.428385416666664,21.207162141799934L29.921875,25.719913005828865L32.415364583333336,32.77450180053712L34.908854166666664,39.547549188137054L37.40234375,47.54802131652832L39.895833333333336,51.67188781499863L42.389322916666664,64.0184485912323L44.8828125,80.10333673655987L47.37630208333333,88.34202585066669L49.869791666666664,110.20341408252715L52.36328125,126.25172090530397L54.85677083333333,130.5077475309372L57.35026041666667,131.5713585615158L59.84375,128.36147212982178L62.337239583333336,140.3959527015686L64.83072916666667,146.84837436676025L67.32421875,133.45033156871796L69.81770833333333,129.60602658987045L72.31119791666667,133.8137692809105L74.8046875,126.99666851758958L77.29817708333334,145.1856170296669L79.79166666666667,141.40385258197784L82.28515625,157.13849318027496L84.77864583333333,159.10923731327057L87.27213541666667,148.17629158496857L89.765625,163.54200494289398L92.25911458333334,149.50807011127472L94.75260416666666,142.89814013242722L97.24609375,146.78842210769653L99.73958333333333,152.25033032894135L102.23307291666667,150.10416042804718L104.7265625,153.49306666851044L107.22005208333333,160.36198210716248L109.71354166666666,159.64280819892883L112.20703125,144.07925027608871L114.70052083333334,152.50930523872375L117.19401041666667,151.55181336402893L119.6875,153.4821298122406L122.18098958333333,166.41069662570953L124.67447916666667,152.6014631986618L127.16796875,155.01212215423584L129.66145833333334,153.75581848621368L132.15494791666666,171.60140597820282L134.6484375,148.30099987983704L137.14192708333331,152.38572227954865L139.63541666666666,156.02425611019135L142.12890625,168.2228809595108L144.62239583333334,166.24430167675018L147.11588541666666,142.28838050365448L149.609375,156.13376533985138L152.10286458333331,160.7522977590561L154.59635416666669,158.63547098636627L157.08984375,164.66952097415924L159.58333333333334,172.55816638469696L162.07682291666666,143.82179808616638L164.5703125,149.10418009757996L167.06380208333334,163.9214470386505L169.55729166666666,153.17762804031372L172.05078125,138.701081097126L174.54427083333334,156.13501727581024L177.03776041666666,155.81948721408844L179.53125,161.01004886627197L182.02473958333331,161.00910639762878L184.51822916666669,155.8204015493393L187.01171875,150.97842669487L189.50520833333331,141.32271587848663L191.99869791666669,160.52692818641663L194.4921875,156.60302329063416L196.98567708333334,143.36927247047424L199.47916666666666,160.21557593345642L201.97265625,157.5487835407257L204.46614583333334,138.66548532247543L206.95963541666666,141.24029558897018L209.453125,152.6601494550705L211.94661458333334,169.2133662700653L214.44010416666666,158.3064650297165L216.93359375,159.24958777427673L219.42708333333331,154.78180813789368L221.92057291666669,147.928759932518L224.4140625,137.9711109995842L226.90755208333331,152.9193423986435L229.40104166666669,159.8455022573471L231.89453125,145.02035093307495L234.38802083333334,154.90456116199493L236.88151041666666,153.2835432291031L239.375,159.250706076622L241.86848958333334,157.4990999698639L244.36197916666666,150.3415710926056L246.85546875,157.04786849021912L249.34895833333334,156.62832927703857L251.84244791666666,153.84456527233124L254.3359375,152.24780535697937L256.8294270833333,155.6036900281906L259.3229166666667,157.83170700073242" style="fill: none;" fill="none"></path></g><g><path stroke="rgb(255, 112, 67)" stroke-width="2px" d="M27.428385416666664,22.002197742462158L29.921875,26.730640292167656L32.415364583333336,31.610289275646203L34.908854166666664,38.36850333213807L37.40234375,47.89836293458938L39.895833333333336,54.301779747009284L42.389322916666664,55.899745881557465L44.8828125,61.75420108437538L47.37630208333333,63.419808685779564L49.869791666666664,60.1717593073845L52.36328125,66.8561882674694L54.85677083333333,74.43934372067451L57.35026041666667,83.20231298357248L59.84375,95.59864788502453L62.337239583333336,109.4652167260647L64.83072916666667,108.56210845708848L67.32421875,124.76245164871216L69.81770833333333,131.0088735818863L72.31119791666667,129.43154329061508L74.8046875,129.8457899093628L77.29817708333334,125.79993730783464L79.79166666666667,123.48134487867354L82.28515625,133.93939191102982L84.77864583333333,134.78245121240616L87.27213541666667,138.64745181798935L89.765625,144.4873532652855L92.25911458333334,136.49918246269226L94.75260416666666,152.25559830665588L97.24609375,143.45278996229172L99.73958333333333,154.5208638906479L102.23307291666667,141.3781492114067L104.7265625,147.84559762477875L107.22005208333333,134.30069851875305L109.71354166666666,144.5426283478737L112.20703125,143.27428710460663L114.70052083333334,146.86839127540588L117.19401041666667,155.67885541915894L119.6875,147.1537482738495L122.18098958333333,152.296124458313L124.67447916666667,139.17820936441422L127.16796875,147.1001928448677L129.66145833333334,149.18588650226593L132.15494791666666,147.993283867836L134.6484375,143.14028775691986L137.14192708333331,146.88861215114594L139.63541666666666,149.2638441324234L142.12890625,140.32660740613937L144.62239583333334,147.86823797225952L147.11588541666666,139.4710111618042L149.609375,143.7580759525299L152.10286458333331,149.599405169487L154.59635416666669,145.29071986675262L157.08984375,152.74961364269257L159.58333333333334,146.46346735954285L162.07682291666666,155.8455809354782L164.5703125,154.55058681964874L167.06380208333334,154.12924706935883L169.55729166666666,152.69077968597412L172.05078125,152.74643456935883L174.54427083333334,149.19754779338837L177.03776041666666,141.32127755880356L179.53125,161.91973507404327L182.02473958333331,146.66416746377945L184.51822916666669,142.61510062217712L187.01171875,160.5019246339798L189.50520833333331,150.45098185539246L191.99869791666669,158.51676213741302L194.4921875,139.91067278385162L196.98567708333334,138.0542275905609L199.47916666666666,151.7483673095703L201.97265625,150.14567828178406L204.46614583333334,160.16983807086945L206.95963541666666,145.64543271064758L209.453125,154.44003665447235L211.94661458333334,143.70656019449234L214.44010416666666,136.56788420677185L216.93359375,130.61603647470474L219.42708333333331,154.0421038866043L221.92057291666669,149.7818924188614L224.4140625,146.7707051038742L226.90755208333331,144.01446962356567L229.40104166666669,145.15050303936005L231.89453125,146.96493101119995L234.38802083333334,156.21083676815033L236.88151041666666,154.9497855901718L239.375,158.8436862230301L241.86848958333334,165.43014240264893L244.36197916666666,151.06931865215302L246.85546875,157.18261337280273L249.34895833333334,137.61524468660355L251.84244791666666,141.97578686475754L254.3359375,148.88172233104706L256.8294270833333,123.9355725646019L259.3229166666667,162.62297141551971L261.81640625,151.37114775180817L264.3098958333333,158.32399916648865L266.8033854166667,160.17865085601807L269.296875,150.58252656459808L271.7903645833333,152.317773103714L274.28385416666663,156.66422045230865" style="fill: none;" fill="none"></path></g></g></g></g></g></g><g transform="translate(30, 177)" clip-path="url(#clip_1)"><clipPath id="clip_1"><rect width="299" height="23"></rect></clipPath><g><g><line x1="0" y1="0" x2="0" y2="5" style="visibility: inherit;" fill="rgb(0, 0, 0)" stroke="rgb(204, 204, 204)" stroke-width="1px"></line><line x1="24.934895833333332" y1="0" x2="24.934895833333332" y2="5" style="visibility: inherit;" fill="rgb(0, 0, 0)" stroke="rgb(204, 204, 204)" stroke-width="1px"></line><line x1="49.869791666666664" y1="0" x2="49.869791666666664" y2="5" style="visibility: inherit;" fill="rgb(0, 0, 0)" stroke="rgb(204, 204, 204)" stroke-width="1px"></line><line x1="74.8046875" y1="0" x2="74.8046875" y2="5" style="visibility: inherit;" fill="rgb(0, 0, 0)" stroke="rgb(204, 204, 204)" stroke-width="1px"></line><line x1="99.73958333333333" y1="0" x2="99.73958333333333" y2="5" style="visibility: inherit;" fill="rgb(0, 0, 0)" stroke="rgb(204, 204, 204)" stroke-width="1px"></line><line x1="124.67447916666667" y1="0" x2="124.67447916666667" y2="5" style="visibility: inherit;" fill="rgb(0, 0, 0)" stroke="rgb(204, 204, 204)" stroke-width="1px"></line><line x1="149.609375" y1="0" x2="149.609375" y2="5" style="visibility: inherit;" fill="rgb(0, 0, 0)" stroke="rgb(204, 204, 204)" stroke-width="1px"></line><line x1="174.54427083333334" y1="0" x2="174.54427083333334" y2="5" style="visibility: inherit;" fill="rgb(0, 0, 0)" stroke="rgb(204, 204, 204)" stroke-width="1px"></line><line x1="199.47916666666666" y1="0" x2="199.47916666666666" y2="5" style="visibility: inherit;" fill="rgb(0, 0, 0)" stroke="rgb(204, 204, 204)" stroke-width="1px"></line><line x1="224.4140625" y1="0" x2="224.4140625" y2="5" style="visibility: inherit;" fill="rgb(0, 0, 0)" stroke="rgb(204, 204, 204)" stroke-width="1px"></line><line x1="249.34895833333334" y1="0" x2="249.34895833333334" y2="5" style="visibility: inherit;" fill="rgb(0, 0, 0)" stroke="rgb(204, 204, 204)" stroke-width="1px"></line><line x1="274.28385416666663" y1="0" x2="274.28385416666663" y2="5" style="visibility: inherit;" fill="rgb(0, 0, 0)" stroke="rgb(204, 204, 204)" stroke-width="1px"></line><line x1="299.21875" y1="0" x2="299.21875" y2="5" style="visibility: inherit;" fill="rgb(0, 0, 0)" stroke="rgb(204, 204, 204)" stroke-width="1px"></line></g><g transform="translate(0, 8)"><text x="0" y="0" dx="0em" dy="0.95em" style="text-anchor: middle; visibility: hidden; font-family: Roboto, sans-serif; font-size: 12px; font-weight: 200;" fill="rgb(33, 33, 33)" stroke="none" stroke-width="1px">-10</text><text x="24.934895833333332" y="0" dx="0em" dy="0.95em" style="text-anchor: middle; visibility: inherit; font-family: Roboto, sans-serif; font-size: 12px; font-weight: 200;" fill="rgb(33, 33, 33)" stroke="none" stroke-width="1px">0</text><text x="49.869791666666664" y="0" dx="0em" dy="0.95em" style="text-anchor: middle; visibility: inherit; font-family: Roboto, sans-serif; font-size: 12px; font-weight: 200;" fill="rgb(33, 33, 33)" stroke="none" stroke-width="1px">10</text><text x="74.8046875" y="0" dx="0em" dy="0.95em" style="text-anchor: middle; visibility: inherit; font-family: Roboto, sans-serif; font-size: 12px; font-weight: 200;" fill="rgb(33, 33, 33)" stroke="none" stroke-width="1px">20</text><text x="99.73958333333333" y="0" dx="0em" dy="0.95em" style="text-anchor: middle; visibility: inherit; font-family: Roboto, sans-serif; font-size: 12px; font-weight: 200;" fill="rgb(33, 33, 33)" stroke="none" stroke-width="1px">30</text><text x="124.67447916666667" y="0" dx="0em" dy="0.95em" style="text-anchor: middle; visibility: inherit; font-family: Roboto, sans-serif; font-size: 12px; font-weight: 200;" fill="rgb(33, 33, 33)" stroke="none" stroke-width="1px">40</text><text x="149.609375" y="0" dx="0em" dy="0.95em" style="text-anchor: middle; visibility: inherit; font-family: Roboto, sans-serif; font-size: 12px; font-weight: 200;" fill="rgb(33, 33, 33)" stroke="none" stroke-width="1px">50</text><text x="174.54427083333334" y="0" dx="0em" dy="0.95em" style="text-anchor: middle; visibility: inherit; font-family: Roboto, sans-serif; font-size: 12px; font-weight: 200;" fill="rgb(33, 33, 33)" stroke="none" stroke-width="1px">60</text><text x="199.47916666666666" y="0" dx="0em" dy="0.95em" style="text-anchor: middle; visibility: inherit; font-family: Roboto, sans-serif; font-size: 12px; font-weight: 200;" fill="rgb(33, 33, 33)" stroke="none" stroke-width="1px">70</text><text x="224.4140625" y="0" dx="0em" dy="0.95em" style="text-anchor: middle; visibility: inherit; font-family: Roboto, sans-serif; font-size: 12px; font-weight: 200;" fill="rgb(33, 33, 33)" stroke="none" stroke-width="1px">80</text><text x="249.34895833333334" y="0" dx="0em" dy="0.95em" style="text-anchor: middle; visibility: inherit; font-family: Roboto, sans-serif; font-size: 12px; font-weight: 200;" fill="rgb(33, 33, 33)" stroke="none" stroke-width="1px">90</text><text x="274.28385416666663" y="0" dx="0em" dy="0.95em" style="text-anchor: middle; visibility: inherit; font-family: Roboto, sans-serif; font-size: 12px; font-weight: 200;" fill="rgb(33, 33, 33)" stroke="none" stroke-width="1px">100</text><text x="299.21875" y="0" dx="0em" dy="0.95em" style="text-anchor: middle; visibility: hidden; font-family: Roboto, sans-serif; font-size: 12px; font-weight: 200;" fill="rgb(33, 33, 33)" stroke="none" stroke-width="1px">110</text></g><line x1="0" y1="0" x2="299.21875" y2="0" fill="rgb(0, 0, 0)" stroke="rgb(204, 204, 204)" stroke-width="1px"></line></g></g></g></g></svg>