<svg viewBox="0 0 330 200" xmlns="http://www.w3.org/2000/svg"><g><g><g><g><g><line x1="51.5625" y1="177" x2="46.5625" y2="177" style="visibility: inherit;" fill="rgb(0, 0, 0)" stroke="rgb(204, 204, 204)" stroke-width="1px"></line><line x1="51.5625" y1="159.3" x2="46.5625" y2="159.3" style="visibility: inherit;" fill="rgb(0, 0, 0)" stroke="rgb(204, 204, 204)" stroke-width="1px"></line><line x1="51.5625" y1="141.6" x2="46.5625" y2="141.6" style="visibility: inherit;" fill="rgb(0, 0, 0)" stroke="rgb(204, 204, 204)" stroke-width="1px"></line><line x1="51.5625" y1="123.89999999999999" x2="46.5625" y2="123.89999999999999" style="visibility: inherit;" fill="rgb(0, 0, 0)" stroke="rgb(204, 204, 204)" stroke-width="1px"></line><line x1="51.5625" y1="106.20000000000002" x2="46.5625" y2="106.20000000000002" style="visibility: inherit;" fill="rgb(0, 0, 0)" stroke="rgb(204, 204, 204)" stroke-width="1px"></line><line x1="51.5625" y1="88.5" x2="46.5625" y2="88.5" style="visibility: inherit;" fill="rgb(0, 0, 0)" stroke="rgb(204, 204, 204)" stroke-width="1px"></line><line x1="51.5625" y1="70.8" x2="46.5625" y2="70.8" style="visibility: inherit;" fill="rgb(0, 0, 0)" stroke="rgb(204, 204, 204)" stroke-width="1px"></line><line x1="51.5625" y1="53.09999999999999" x2="46.5625" y2="53.09999999999999" style="visibility: inherit;" fill="rgb(0, 0, 0)" stroke="rgb(204, 204, 204)" stroke-width="1px"></line><line x1="51.5625" y1="35.40000000000001" x2="46.5625" y2="35.40000000000001" style="visibility: inherit;" fill="rgb(0, 0, 0)" stroke="rgb(204, 204, 204)" stroke-width="1px"></line><line x1="51.5625" y1="17.700000000000017" x2="46.5625" y2="17.700000000000017" style="visibility: inherit;" fill="rgb(0, 0, 0)" stroke="rgb(204, 204, 204)" stroke-width="1px"></line><line x1="51.5625" y1="0" x2="46.5625" y2="0" style="visibility: inherit;" fill="rgb(0, 0, 0)" stroke="rgb(204, 204, 204)" stroke-width="1px"></line></g><g transform="translate(41.5625, 0)"><text x="0" y="177" dx="0em" dy="0.3em" style="text-anchor: end; visibility: hidden; font-family: Roboto, sans-serif; font-size: 12px; font-weight: 200;" fill="rgb(33, 33, 33)" stroke="none" stroke-width="1px">0</text><text x="0" y="159.3" dx="0em" dy="0.3em" style="text-anchor: end; visibility: inherit; font-family: Roboto, sans-serif; font-size: 12px; font-weight: 200;" fill="rgb(33, 33, 33)" stroke="none" stroke-width="1px">0.01</text><text x="0" y="141.6" dx="0em" dy="0.3em" style="text-anchor: end; visibility: hidden; font-family: Roboto, sans-serif; font-size: 12px; font-weight: 200;" fill="rgb(33, 33, 33)" stroke="none" stroke-width="1px">0.02</text><text x="0" y="123.89999999999999" dx="0em" dy="0.3em" style="text-anchor: end; visibility: inherit; font-family: Roboto, sans-serif; font-size: 12px; font-weight: 200;" fill="rgb(33, 33, 33)" stroke="none" stroke-width="1px">0.03</text><text x="0" y="106.20000000000002" dx="0em" dy="0.3em" style="text-anchor: end; visibility: hidden; font-family: Roboto, sans-serif; font-size: 12px; font-weight: 200;" fill="rgb(33, 33, 33)" stroke="none" stroke-width="1px">0.04</text><text x="0" y="88.5" dx="0em" dy="0.3em" style="text-anchor: end; visibility: inherit; font-family: Roboto, sans-serif; font-size: 12px; font-weight: 200;" fill="rgb(33, 33, 33)" stroke="none" stroke-width="1px">0.05</text><text x="0" y="70.8" dx="0em" dy="0.3em" style="text-anchor: end; visibility: hidden; font-family: Roboto, sans-serif; font-size: 12px; font-weight: 200;" fill="rgb(33, 33, 33)" stroke="none" stroke-width="1px">0.06</text><text x="0" y="53.09999999999999" dx="0em" dy="0.3em" style="text-anchor: end; visibility: inherit; font-family: Roboto, sans-serif; font-size: 12px; font-weight: 200;" fill="rgb(33, 33, 33)" stroke="none" stroke-width="1px">0.07</text><text x="0" y="35.40000000000001" dx="0em" dy="0.3em" style="text-anchor: end; visibility: hidden; font-family: Roboto, sans-serif; font-size: 12px; font-weight: 200;" fill="rgb(33, 33, 33)" stroke="none" stroke-width="1px">0.08</text><text x="0" y="17.700000000000017" dx="0em" dy="0.3em" style="text-anchor: end; visibility: inherit; font-family: Roboto, sans-serif; font-size: 12px; font-weight: 200;" fill="rgb(33, 33, 33)" stroke="none" stroke-width="1px">0.09</text><text x="0" y="0" dx="0em" dy="0.3em" style="text-anchor: end; visibility: hidden; font-family: Roboto, sans-serif; font-size: 12px; font-weight: 200;" fill="rgb(33, 33, 33)" stroke="none" stroke-width="1px">0.1</text></g><line x1="51.5625" y1="0" x2="51.5625" y2="177" fill="rgb(0, 0, 0)" stroke="rgb(204, 204, 204)" stroke-width="1px"></line></g></g><g transform="translate(51, 0)" clip-path="url(#clip_0)"><clipPath id="clip_0"><rect width="278" height="177"></rect></clipPath><g><g><g><line x1="0" y1="0" x2="0" y2="177" fill="rgb(0, 0, 0)" stroke="rgb(66, 66, 66)" stroke-width="1px" opacity="0.25"></line><line x1="23.203125" y1="0" x2="23.203125" y2="177" fill="rgb(0, 0, 0)" stroke="rgb(66, 66, 66)" stroke-width="1px" opacity="0.25"></line><line x1="46.40625" y1="0" x2="46.40625" y2="177" fill="rgb(0, 0, 0)" stroke="rgb(66, 66, 66)" stroke-width="1px" opacity="0.25"></line><line x1="69.609375" y1="0" x2="69.609375" y2="177" fill="rgb(0, 0, 0)" stroke="rgb(66, 66, 66)" stroke-width="1px" opacity="0.25"></line><line x1="92.8125" y1="0" x2="92.8125" y2="177" fill="rgb(0, 0, 0)" stroke="rgb(66, 66, 66)" stroke-width="1px" opacity="0.25"></line><line x1="116.015625" y1="0" x2="116.015625" y2="177" fill="rgb(0, 0, 0)" stroke="rgb(66, 66, 66)" stroke-width="1px" opacity="0.25"></line><line x1="139.21875" y1="0" x2="139.21875" y2="177" fill="rgb(0, 0, 0)" stroke="rgb(66, 66, 66)" stroke-width="1px" opacity="0.25"></line><line x1="162.421875" y1="0" x2="162.421875" y2="177" fill="rgb(0, 0, 0)" stroke="rgb(66, 66, 66)" stroke-width="1px" opacity="0.25"></line><line x1="185.625" y1="0" x2="185.625" y2="177" fill="rgb(0, 0, 0)" stroke="rgb(66, 66, 66)" stroke-width="1px" opacity="0.25"></line><line x1="208.828125" y1="0" x2="208.828125" y2="177" fill="rgb(0, 0, 0)" stroke="rgb(66, 66, 66)" stroke-width="1px" opacity="0.25"></line><line x1="232.03125" y1="0" x2="232.03125" y2="177" fill="rgb(0, 0, 0)" stroke="rgb(66, 66, 66)" stroke-width="1px" opacity="0.25"></line><line x1="255.234375" y1="0" x2="255.234375" y2="177" fill="rgb(0, 0, 0)" stroke="rgb(66, 66, 66)" stroke-width="1px" opacity="0.25"></line><line x1="278.4375" y1="0" x2="278.4375" y2="177" fill="rgb(0, 0, 0)" stroke="rgb(66, 66, 66)" stroke-width="1px" opacity="0.25"></line></g><g><line x1="0" y1="177" x2="278.4375" y2="177" fill="rgb(0, 0, 0)" stroke="rgb(66, 66, 66)" stroke-width="1px" opacity="0.25"></line><line x1="0" y1="159.3" x2="278.4375" y2="159.3" fill="rgb(0, 0, 0)" stroke="rgb(66, 66, 66)" stroke-width="1px" opacity="0.25"></line><line x1="0" y1="141.6" x2="278.4375" y2="141.6" fill="rgb(0, 0, 0)" stroke="rgb(66, 66, 66)" stroke-width="1px" opacity="0.25"></line><line x1="0" y1="123.89999999999999" x2="278.4375" y2="123.89999999999999" fill="rgb(0, 0, 0)" stroke="rgb(66, 66, 66)" stroke-width="1px" opacity="0.25"></line><line x1="0" y1="106.20000000000002" x2="278.4375" y2="106.20000000000002" fill="rgb(0, 0, 0)" stroke="rgb(66, 66, 66)" stroke-width="1px" opacity="0.25"></line><line x1="0" y1="88.5" x2="278.4375" y2="88.5" fill="rgb(0, 0, 0)" stroke="rgb(66, 66, 66)" stroke-width="1px" opacity="0.25"></line><line x1="0" y1="70.8" x2="278.4375" y2="70.8" fill="rgb(0, 0, 0)" stroke="rgb(66, 66, 66)" stroke-width="1px" opacity="0.25"></line><line x1="0" y1="53.09999999999999" x2="278.4375" y2="53.09999999999999" fill="rgb(0, 0, 0)" stroke="rgb(66, 66, 66)" stroke-width="1px" opacity="0.25"></line><line x1="0" y1="35.40000000000001" x2="278.4375" y2="35.40000000000001" fill="rgb(0, 0, 0)" stroke="rgb(66, 66, 66)" stroke-width="1px" opacity="0.25"></line><line x1="0" y1="17.700000000000017" x2="278.4375" y2="17.700000000000017" fill="rgb(0, 0, 0)" stroke="rgb(66, 66, 66)" stroke-width="1px" opacity="0.25"></line><line x1="0" y1="0" x2="278.4375" y2="0" fill="rgb(0, 0, 0)" stroke="rgb(66, 66, 66)" stroke-width="1px" opacity="0.25"></line></g></g></g><g><g><line x1="0" y1="177" x2="278.4375" y2="177" fill="rgb(0, 0, 0)" stroke="rgb(153, 153, 153)" stroke-width="1.5px"></line></g></g><g><g><line x1="23.203125" y1="0" x2="23.203125" y2="177" fill="rgb(0, 0, 0)" stroke="rgb(153, 153, 153)" stroke-width="1.5px"></line></g></g><g><g><g><g><g><path stroke="rgb(51, 187, 238)" stroke-width="2px" d="M25.523437499999996,150.03084491752088L25.523437499999996,157.08990103500366L27.84375,160.5343396800196L30.1640625,156.59898773294225L32.484375,159.70141440693482L34.8046875,160.46538075008823L37.125,162.1386153298608L39.4453125,163.0355525279623L41.765625,160.72645780920362L44.0859375,160.50251076106068L46.40625,156.0768079518924L48.7265625,158.7294927077351L51.04687499999999,160.5821444559519L53.36718750000001,160.13533992225197L55.6875,158.4186234324641L58.0078125,159.03969516131093L60.328125,160.51361507055645L62.6484375,159.28809545631248L64.96875,158.04967125670018L67.2890625,156.94720710671342L69.609375,156.3307912664137L71.92968750000001,144.56607348156294L74.25,139.4691453402289L76.5703125,132.6247404341106L78.890625,133.36674033157237L81.2109375,112.75975637555905L83.53125,108.37692691829649L85.8515625,105.15339103797474L88.171875,101.7693987274111L90.4921875,99.95607881025211L92.8125,108.77478916530181L95.1328125,110.96715007513187L97.453125,112.80229347981614L99.7734375,112.50581000196932L102.09374999999999,112.57935030783672L104.4140625,117.49170411014988L106.73437500000001,118.72005333569031L109.0546875,124.1051273423696L111.375,123.86406634450796L113.6953125,120.73250102196612L116.015625,119.4111045278546L118.3359375,116.49035638036048L120.65625,117.37754821045178L122.9765625,120.3730865761188L125.296875,121.09770902767472L127.6171875,119.78376190098128L129.9375,123.99088078670404L132.2578125,126.14597111613377L134.578125,127.90808766147471L136.8984375,126.39425254980222L139.21875,126.61483634506396L141.5390625,130.17427848554587L143.85937500000003,132.8396722239739L146.1796875,138.32525559613083L148.5,137.00838953845113L150.8203125,134.8107508413064L153.140625,137.2439058242222L155.4609375,134.64738153731278L157.78125,133.78383980800515L160.1015625,130.66995492689506L162.421875,128.46870812151906L164.7421875,132.04507741842352L167.0625,126.69948744517599L169.38281249999997,132.426880214822L171.703125,133.9418259246426L174.0234375,136.2188902328609L176.34375,134.55313293615652L178.66406250000003,134.90213782206376L180.984375,134.03928162226794L183.3046875,137.12438205107446L185.625,135.08338901239392L187.9453125,132.75197541660174L190.265625,130.6179126426923L192.5859375,135.30157981557716L194.90625,132.7317011407768L197.2265625,130.30767280854207L199.546875,133.18585113358483L201.8671875,131.3247867318533L204.18749999999997,130.04758224174742L206.5078125,128.7223535370056L208.828125,122.37945707007763L211.1484375,125.58360585548395L213.46875000000003,125.17100485659023L215.7890625,118.20325767760302L218.109375,119.07263862693922L220.4296875,122.33728033988343L222.75,125.01022356546271L225.0703125,121.65972229263116L227.390625,124.9699498140469L229.7109375,124.8024199545656L232.03125,126.8833967776798L234.3515625,127.20937075927083L236.671875,119.67618978041148L238.99218749999997,119.13608322547479L241.3125,106.22914182076572L243.6328125,102.58176361035835L245.953125,109.19525366843622L248.27343750000003,110.35357963816713L250.59375,105.60029910064367L252.9140625,111.95975986716462L255.234375,113.43176289146695" style="fill: none;" fill="none"></path></g><g><path stroke="rgb(204, 51, 17)" stroke-width="2px" d="M25.523437499999996,152.0004137121141L27.84375,159.4033518143646L30.1640625,161.84154296157504L32.484375,162.07097606659033L34.8046875,162.87355646036073L37.125,162.6995073059491L39.4453125,160.44550771932145L41.765625,154.6950199615722L44.0859375,153.798405459742L46.40625,143.39549517592778L48.7265625,144.05873620284794L51.04687499999999,139.09501627999228L53.36718750000001,133.9411891717872L55.6875,133.65567401476272L58.0078125,107.18967770689416L60.328125,114.83067149560074L62.6484375,109.39169283392806L64.96875,106.24022947554303L67.2890625,95.92559301237571L69.609375,92.8685848000164L71.92968750000001,98.61672678149311L74.25,97.87204544629228L76.5703125,85.05478343376835L78.890625,86.86500947320684L81.2109375,76.76782854700703L83.53125,80.23766566836838L85.8515625,75.48204114928815L88.171875,80.94444343962303L90.4921875,62.21439583904013L92.8125,64.12161940985916L95.1328125,67.83308217098626L97.453125,60.27016020737421L99.7734375,50.178433871697564L102.09374999999999,48.031665722670766L104.4140625,49.81822727916321L106.73437500000001,49.8974730819262L109.0546875,33.79781885182168L111.375,43.39113012038804L113.6953125,40.101427741934835L116.015625,47.64715966650119L118.3359375,44.13763275086939L120.65625,45.246618805816006L122.9765625,32.008390974407305L125.296875,35.11928797052285L127.6171875,34.74382685325754L129.9375,23.905347797036736L132.2578125,26.7305475225329L134.578125,12.51655532703472L136.8984375,25.084668335540034L139.21875,32.163751485688174L141.5390625,47.63794634410202L143.85937500000003,44.16751894907213L146.1796875,50.86295305056022L148.5,53.184126606331205L150.8203125,54.26028847704412L153.140625,53.70324071519755L155.4609375,64.12658785832096L157.78125,61.25388863290762L160.1015625,61.12563826381809L162.421875,52.47259492454709L164.7421875,45.77551886538755L167.0625,56.233410820918856L169.38281249999997,67.83379986307703L171.703125,79.64390072351532L174.0234375,74.88482364556145L176.34375,71.45859495086731L178.66406250000003,71.07284008079084L180.984375,71.03863945087845L183.3046875,72.7694702092706L185.625,70.8449157499854L187.9453125,60.81065957370822L190.265625,51.73855010056642L192.5859375,61.71335556456243L194.90625,55.08594333886633L197.2265625,57.761153190803405L199.546875,67.21346664469526L201.8671875,76.44456076425725L204.18749999999997,72.46771480405465L206.5078125,66.38254108501798L208.828125,76.15983634106585L211.1484375,79.8681618299406L213.46875000000003,75.69894803056465L215.7890625,82.0769089244323L218.109375,64.84115005130597L220.4296875,69.38313953653731L222.75,67.76032234708237L225.0703125,70.20961923640724L227.390625,73.24470770974139L229.7109375,72.9881129672641L232.03125,73.40088471523167L234.3515625,67.1869367466075L236.671875,75.3417473327141L238.99218749999997,76.09280637593231L241.3125,80.5175366010008" style="fill: none;" fill="none"></path></g><g><path stroke="rgb(255, 112, 67)" stroke-width="2px" d="M25.523437499999996,144.80587887391448L27.84375,149.85376344119078L30.1640625,153.77518821410138L32.484375,159.60055366035473L34.8046875,159.5715381309007L37.125,160.9544210451502L39.4453125,162.98348280487284L41.765625,163.98651382378407L44.0859375,164.33718221396083L46.40625,165.31789185796532L48.7265625,164.68254689299349L51.04687499999999,161.34373523145146L53.36718750000001,155.5387966945659L55.6875,154.96259986877942L58.0078125,150.38032627783952L60.328125,146.44182058502918L62.6484375,144.93067644914868L64.96875,133.19852963595233L67.2890625,123.09884941729987L69.609375,113.5325711052381L71.92968750000001,109.77728293134233L74.25,109.82705267453724L76.5703125,108.99666627473563L78.890625,111.99711102853243L81.2109375,109.03611053668561L83.53125,91.9787285598595L85.8515625,86.22680450955477L88.171875,86.94893447155341L90.4921875,87.22116543679907L92.8125,85.43881209452141L95.1328125,76.8833757848464L97.453125,74.62311905476726L99.7734375,78.09187195162428L102.09374999999999,70.44383470706481L104.4140625,68.35127820118016L106.73437500000001,66.35856207264743L109.0546875,73.84826533309604L111.375,85.25382137878246L113.6953125,78.32164631767573L116.015625,87.25229806019955L118.3359375,92.94684767566368L120.65625,84.94260991343761L122.9765625,75.95819259261799L125.296875,65.01486416237397L127.6171875,70.80436555728348L129.9375,74.67934499950779L132.2578125,80.33014461572652L134.578125,80.32500286723172L136.8984375,74.23802564036578L139.21875,75.99678126251447L141.5390625,78.21460234525851L143.85937500000003,72.93534277938919L146.1796875,81.98189041745823L148.5,86.15225430288099L150.8203125,90.08731010457024L153.140625,79.5117814784689L155.4609375,85.97950837667956L157.78125,84.76409359119604L160.1015625,78.59040297776428L162.421875,85.83821383238457L164.7421875,81.01101176371574L167.0625,80.38450753482691L169.38281249999997,91.32283376964318L171.703125,80.86163000588968L174.0234375,83.59501425074572L176.34375,78.8669647437785L178.66406250000003,80.06899864629838L180.984375,75.91410870917021L183.3046875,75.58699673026798L185.625,80.89516724323657L187.9453125,81.58156444316673L190.265625,83.93326824685299L192.5859375,93.9519660105813L194.90625,80.40651285569507L197.2265625,85.9876673690855L199.546875,84.93170675160655L201.8671875,85.01115696440104L204.18749999999997,81.76917976993374L206.5078125,76.48973245190746L208.828125,79.27364788144159L211.1484375,77.01039987608695L213.46875000000003,77.5707498229047L215.7890625,78.3241406381361L218.109375,77.25671023727938L220.4296875,70.67738075912182L222.75,69.33216188548508L225.0703125,72.14589870224759L227.390625,72.87781026916257L229.7109375,80.9260014059648L232.03125,80.28456938009109L234.3515625,64.19631066545001L236.671875,67.23150259674891L238.99218749999997,67.98415759099476L241.3125,61.5756267979477L243.6328125,60.326758449319165L245.953125,63.99178277691843L248.27343750000003,73.31119399809084L250.59375,56.6555317346634L252.9140625,59.63698849076304L255.234375,68.31129155043122" style="fill: none;" fill="none"></path></g></g></g></g><g opacity="0.2"><g><g><g><path stroke="rgb(51, 187, 238)" stroke-width="2px" d="M25.523437499999996,150.03084491752088L25.523437499999996,162.20771672017872L27.84375,164.84204076044261L30.1640625,150.1776616629213L32.484375,165.62079723738134L34.8046875,162.07604255340993L37.125,165.90926533844322L39.4453125,165.1512429518625L41.765625,155.10352139174938L44.0859375,159.94477818533778L46.40625,144.87717724218965L48.7265625,165.51950713433325L51.04687499999999,165.36340389680117L53.36718750000001,158.97541083209217L55.6875,153.94290356710553L58.0078125,160.6639072559774L60.328125,164.3767633549869L62.6484375,156.07082819379866L64.96875,154.79473378323019L67.2890625,154.04716416075826L69.609375,154.7083109691739L71.92968750000001,113.58619735389948L74.25,126.0431590564549L76.5703125,114.59146939963102L78.890625,135.32205187529325L81.2109375,58.449770629405975L83.53125,96.82489585876465L85.8515625,96.65641859918833L88.171875,92.84906067699194L90.4921875,95.17593399435282L92.8125,132.022614877671L95.1328125,116.74674001336098L97.453125,117.64023457467556L99.7734375,111.724190980196L102.09374999999999,112.77322583645582L104.4140625,130.4422875009477L106.73437500000001,121.95839819312096L109.0546875,138.30204409360886L111.375,123.22854502871633L113.6953125,112.47658558934927L116.015625,115.92743188887835L118.3359375,108.79021663963795L120.65625,119.71650530397892L122.9765625,128.27040719613433L125.296875,123.00807594135404L127.6171875,116.31972127407789L129.9375,135.08237185701728L132.2578125,131.82757134363055L134.578125,132.55366672575474L136.8984375,122.40323328226805L139.21875,127.1963753812015L141.5390625,139.558261603117L143.85937500000003,139.8666189685464L146.1796875,152.78724754974246L148.5,133.5366518497467L150.8203125,129.01697621494532L153.140625,143.65858704596758L155.4609375,127.80199940130115L157.78125,131.50722981244326L160.1015625,122.46062210574746L162.421875,122.66542111337185L164.7421875,141.47368735447526L167.0625,112.6065684556961L169.38281249999997,147.5263702198863L171.703125,137.9357737004757L174.0234375,142.22205976769328L176.34375,130.16159097477794L178.66406250000003,135.82224161177874L180.984375,131.76447891443968L183.3046875,145.25782863423228L185.625,129.7025891840458L187.9453125,126.60552139207721L190.265625,124.99174714833498L192.5859375,147.64942963421345L194.90625,125.95656645298004L197.2265625,123.91705266013741L199.546875,140.77377580851316L201.8671875,126.41834421828389L204.18749999999997,126.68040676787496L206.5078125,125.2285687699914L208.828125,105.65727547556162L211.1484375,134.03090719878674L213.46875000000003,124.08323858678341L215.7890625,99.83374238759279L218.109375,121.36464294791222L220.4296875,130.9440630376339L222.75,132.05707388743758L225.0703125,112.82658257335424L227.390625,133.696913279593L229.7109375,124.36075032502413L232.03125,132.3696084022522L234.3515625,128.06875671073794L236.671875,99.81598538160324L238.99218749999997,117.71216594427824L241.3125,72.20175084471703L243.6328125,92.96594832837582L245.953125,126.6308183670044L248.27343750000003,113.40734810382128L250.59375,93.06892313808203L252.9140625,128.7256109789014L255.234375,117.31249813735485" style="fill: none;" fill="none"></path></g><g><path stroke="rgb(204, 51, 17)" stroke-width="2px" d="M25.523437499999996,152.0004137121141L27.84375,164.77048193849623L30.1640625,164.89080576505512L32.484375,162.4453427810222L34.8046875,164.40486762486398L37.125,162.33256139606237L39.4453125,155.36609825491905L41.765625,141.13080174475908L44.0859375,151.61503623984754L46.40625,117.48739772289991L48.7265625,145.73712603002787L51.04687499999999,126.38949979841709L53.36718750000001,120.64037074148655L55.6875,132.91446099802852L58.0078125,38.18912570178509L60.328125,134.8132177144289L62.6484375,95.13611425459385L64.96875,97.96692256629467L67.2890625,68.8157410249114L69.609375,84.82709419727325L71.92968750000001,113.74652472138405L74.25,95.91108591109514L76.5703125,51.29241143167019L78.890625,91.63449597358704L81.2109375,50.15982699394226L83.53125,89.38246846944094L85.8515625,62.94741649925709L88.171875,95.34288150072098L90.4921875,12.841246917843819L92.8125,69.14930634945631L95.1328125,77.61721567064524L97.453125,40.332481384277344L99.7734375,23.57387673854828L102.09374999999999,42.37214353680611L104.4140625,54.52816915512085L106.73437500000001,50.1063911318779L109.0546875,-8.646326020359993L111.375,68.68241512030363L113.6953125,31.428618773818016L116.015625,67.54038181900978L118.3359375,34.885267585515976L120.65625,48.17030382156372L122.9765625,-2.8923439532518387L125.296875,43.32073558866978L127.6171875,33.75397552549839L129.9375,-4.668809428811073L132.2578125,34.17879854142666L134.578125,-24.956686601042747L136.8984375,58.218777894973755L139.21875,50.82678620517254L141.5390625,88.43354672938585L143.85937500000003,35.01821105182171L146.1796875,68.51455108076334L148.5,59.303583920001984L150.8203125,57.09744241833687L153.140625,52.234660282731056L155.4609375,91.6063208207488L157.78125,53.6804089397192L160.1015625,60.78752365708351L162.421875,29.660026252269745L164.7421875,28.119591146707535L167.0625,83.80421680212021L169.38281249999997,98.41664363443851L171.703125,110.77962112426758L174.0234375,62.338165909051895L176.34375,62.42581021785736L178.66406250000003,70.05584996938705L180.984375,70.9484741538763L183.3046875,77.33256947994232L185.625,65.77109035849571L187.9453125,34.356711477041245L190.265625,27.821170583367348L192.5859375,88.0105699673295L194.90625,37.613674744963646L197.2265625,64.81397916376591L199.546875,92.13320211321115L201.8671875,100.78108162432909L204.18749999999997,61.98330272734165L206.5078125,50.339810371398926L208.828125,101.93634201586246L211.1484375,89.64465630054474L213.46875000000003,64.70738437771797L215.7890625,98.8915330991149L218.109375,19.40142211318016L220.4296875,81.35747545212507L222.75,63.48198612034321L225.0703125,76.66685649007559L227.390625,81.24630459398031L229.7109375,72.31163591891527L232.03125,74.48910114169121L234.3515625,50.804710283875465L236.671875,96.84079342335463L238.99218749999997,78.07287112623453L241.3125,92.18273446708918" style="fill: none;" fill="none"></path></g><g><path stroke="rgb(255, 112, 67)" stroke-width="2px" d="M25.523437499999996,144.80587887391448L27.84375,153.51347975246608L30.1640625,158.6794200707227L32.484375,169.10582066327333L34.8046875,159.5161769427359L37.125,163.86993781942874L39.4453125,167.55599274113774L41.765625,166.3524577561766L44.0859375,165.1911039026454L46.40625,167.76031617354602L48.7265625,163.07475050725043L51.04687499999999,152.79745799303055L53.36718750000001,140.55761244893074L55.6875,153.46676128730178L58.0078125,138.43369847908616L60.328125,136.14193365722895L62.6484375,140.96996336057782L64.96875,102.3989802673459L67.2890625,96.55396469682455L69.609375,88.36838056147099L71.92968750000001,99.89291482418776L74.25,109.9581106826663L76.5703125,106.8093181103468L78.890625,119.90252197533846L81.2109375,101.23330832272768L83.53125,47.02376697957516L85.8515625,71.06618602573872L88.171875,88.85240898281336L90.4921875,87.93877706676722L92.8125,80.74029915779829L95.1328125,54.32959136366844L97.453125,68.66453942656517L99.7734375,87.23645550012589L102.09374999999999,50.281323686242104L104.4140625,62.83463676273823L106.73437500000001,61.10510569810867L109.0546875,93.59366145730019L111.375,115.3228101208806L113.6953125,60.04600216448307L116.015625,110.79665940999985L118.3359375,107.9597123041749L120.65625,63.8405681848526L122.9765625,52.272033736109734L125.296875,36.16429951786995L127.6171875,86.06758558005095L129.9375,84.8951945900917L132.2578125,95.22770163416862L134.578125,80.31144735217094L136.8984375,58.19054339826107L139.21875,80.63349996507168L141.5390625,84.06158459186554L143.85937500000003,59.01729588210583L146.1796875,105.83187834173441L148.5,97.14684956520796L150.8203125,100.46154782921076L153.140625,51.630842953920364L155.4609375,103.03078812360764L157.78125,81.55981828272343L160.1015625,62.31430967152119L162.421875,104.94607870280743L164.7421875,68.28475181758404L167.0625,78.73281457275152L169.38281249999997,120.16023923456669L171.703125,53.28209285438061L174.0234375,90.80120906978846L176.34375,66.40210696309805L178.66406250000003,83.23799711465836L180.984375,64.96030797064304L183.3046875,74.7246106043458L185.625,94.88943495601416L187.9453125,83.39115706086159L190.265625,90.13321463763714L192.5859375,120.36489647626877L194.90625,44.69577272236347L197.2265625,100.70162017643452L199.546875,82.14781057834625L201.8671875,85.22061661630869L204.18749999999997,73.22214898467064L206.5078125,62.571189522743225L208.828125,86.61306128650904L211.1484375,71.04365513473749L213.46875000000003,79.04803604632616L215.7890625,80.31035278737545L218.109375,74.44257554411888L220.4296875,53.3318757712841L222.75,65.78567576408386L225.0703125,79.5639321282506L227.390625,74.80739530920982L229.7109375,102.14395985752344L232.03125,78.59352131187916L234.3515625,21.78181041777134L236.671875,75.23337223380804L238.99218749999997,69.96842984855175L241.3125,44.680409252643585L243.6328125,57.034287348389626L245.953125,73.65411964058876L248.27343750000003,97.88055085390806L250.59375,12.745149403810501L252.9140625,67.49719266593456L255.234375,91.17990870773792" style="fill: none;" fill="none"></path></g></g></g></g></g></g><g transform="translate(51, 177)" clip-path="url(#clip_1)"><clipPath id="clip_1"><rect width="278" height="23"></rect></clipPath><g><g><line x1="0" y1="0" x2="0" y2="5" style="visibility: inherit;" fill="rgb(0, 0, 0)" stroke="rgb(204, 204, 204)" stroke-width="1px"></line><line x1="23.203125" y1="0" x2="23.203125" y2="5" style="visibility: inherit;" fill="rgb(0, 0, 0)" stroke="rgb(204, 204, 204)" stroke-width="1px"></line><line x1="46.40625" y1="0" x2="46.40625" y2="5" style="visibility: inherit;" fill="rgb(0, 0, 0)" stroke="rgb(204, 204, 204)" stroke-width="1px"></line><line x1="69.609375" y1="0" x2="69.609375" y2="5" style="visibility: inherit;" fill="rgb(0, 0, 0)" stroke="rgb(204, 204, 204)" stroke-width="1px"></line><line x1="92.8125" y1="0" x2="92.8125" y2="5" style="visibility: inherit;" fill="rgb(0, 0, 0)" stroke="rgb(204, 204, 204)" stroke-width="1px"></line><line x1="116.015625" y1="0" x2="116.015625" y2="5" style="visibility: inherit;" fill="rgb(0, 0, 0)" stroke="rgb(204, 204, 204)" stroke-width="1px"></line><line x1="139.21875" y1="0" x2="139.21875" y2="5" style="visibility: inherit;" fill="rgb(0, 0, 0)" stroke="rgb(204, 204, 204)" stroke-width="1px"></line><line x1="162.421875" y1="0" x2="162.421875" y2="5" style="visibility: inherit;" fill="rgb(0, 0, 0)" stroke="rgb(204, 204, 204)" stroke-width="1px"></line><line x1="185.625" y1="0" x2="185.625" y2="5" style="visibility: inherit;" fill="rgb(0, 0, 0)" stroke="rgb(204, 204, 204)" stroke-width="1px"></line><line x1="208.828125" y1="0" x2="208.828125" y2="5" style="visibility: inherit;" fill="rgb(0, 0, 0)" stroke="rgb(204, 204, 204)" stroke-width="1px"></line><line x1="232.03125" y1="0" x2="232.03125" y2="5" style="visibility: inherit;" fill="rgb(0, 0, 0)" stroke="rgb(204, 204, 204)" stroke-width="1px"></line><line x1="255.234375" y1="0" x2="255.234375" y2="5" style="visibility: inherit;" fill="rgb(0, 0, 0)" stroke="rgb(204, 204, 204)" stroke-width="1px"></line><line x1="278.4375" y1="0" x2="278.4375" y2="5" style="visibility: inherit;" fill="rgb(0, 0, 0)" stroke="rgb(204, 204, 204)" stroke-width="1px"></line></g><g transform="translate(0, 8)"><text x="0" y="0" dx="0em" dy="0.95em" style="text-anchor: middle; visibility: hidden; font-family: Roboto, sans-serif; font-size: 12px; font-weight: 200;" fill="rgb(33, 33, 33)" stroke="none" stroke-width="1px">-10</text><text x="23.203125" y="0" dx="0em" dy="0.95em" style="text-anchor: middle; visibility: inherit; font-family: Roboto, sans-serif; font-size: 12px; font-weight: 200;" fill="rgb(33, 33, 33)" stroke="none" stroke-width="1px">0</text><text x="46.40625" y="0" dx="0em" dy="0.95em" style="text-anchor: middle; visibility: inherit; font-family: Roboto, sans-serif; font-size: 12px; font-weight: 200;" fill="rgb(33, 33, 33)" stroke="none" stroke-width="1px">10</text><text x="69.609375" y="0" dx="0em" dy="0.95em" style="text-anchor: middle; visibility: inherit; font-family: Roboto, sans-serif; font-size: 12px; font-weight: 200;" fill="rgb(33, 33, 33)" stroke="none" stroke-width="1px">20</text><text x="92.8125" y="0" dx="0em" dy="0.95em" style="text-anchor: middle; visibility: inherit; font-family: Roboto, sans-serif; font-size: 12px; font-weight: 200;" fill="rgb(33, 33, 33)" stroke="none" stroke-width="1px">30</text><text x="116.015625" y="0" dx="0em" dy="0.95em" style="text-anchor: middle; visibility: inherit; font-family: Roboto, sans-serif; font-size: 12px; font-weight: 200;" fill="rgb(33, 33, 33)" stroke="none" stroke-width="1px">40</text><text x="139.21875" y="0" dx="0em" dy="0.95em" style="text-anchor: middle; visibility: inherit; font-family: Roboto, sans-serif; font-size: 12px; font-weight: 200;" fill="rgb(33, 33, 33)" stroke="none" stroke-width="1px">50</text><text x="162.421875" y="0" dx="0em" dy="0.95em" style="text-anchor: middle; visibility: inherit; font-family: Roboto, sans-serif; font-size: 12px; font-weight: 200;" fill="rgb(33, 33, 33)" stroke="none" stroke-width="1px">60</text><text x="185.625" y="0" dx="0em" dy="0.95em" style="text-anchor: middle; visibility: inherit; font-family: Roboto, sans-serif; font-size: 12px; font-weight: 200;" fill="rgb(33, 33, 33)" stroke="none" stroke-width="1px">70</text><text x="208.828125" y="0" dx="0em" dy="0.95em" style="text-anchor: middle; visibility: inherit; font-family: Roboto, sans-serif; font-size: 12px; font-weight: 200;" fill="rgb(33, 33, 33)" stroke="none" stroke-width="1px">80</text><text x="232.03125" y="0" dx="0em" dy="0.95em" style="text-anchor: middle; visibility: inherit; font-family: Roboto, sans-serif; font-size: 12px; font-weight: 200;" fill="rgb(33, 33, 33)" stroke="none" stroke-width="1px">90</text><text x="255.234375" y="0" dx="0em" dy="0.95em" style="text-anchor: middle; visibility: inherit; font-family: Roboto, sans-serif; font-size: 12px; font-weight: 200;" fill="rgb(33, 33, 33)" stroke="none" stroke-width="1px">100</text><text x="278.4375" y="0" dx="0em" dy="0.95em" style="text-anchor: middle; visibility: hidden; font-family: Roboto, sans-serif; font-size: 12px; font-weight: 200;" fill="rgb(33, 33, 33)" stroke="none" stroke-width="1px">110</text></g><line x1="0" y1="0" x2="278.4375" y2="0" fill="rgb(0, 0, 0)" stroke="rgb(204, 204, 204)" stroke-width="1px"></line></g></g></g></g></svg>